<svg xmlns="http://www.w3.org/2000/svg" xmlns:xlink="http://www.w3.org/1999/xlink" width="500" zoomAndPan="magnify" viewBox="0 0 375 374.999991" height="500" preserveAspectRatio="xMidYMid meet" version="1.0"><defs><clipPath id="e55e6012e0"><path d="M 37.5 0 L 340.5 0 L 340.5 375 L 37.5 375 Z M 37.5 0 " clip-rule="nonzero"/></clipPath></defs><path fill="#57a4ff" d="M 319.160156 6.046875 L 58.839844 6.046875 C 50.476562 6.046875 43.703125 12.816406 43.703125 21.167969 L 43.703125 66.53125 L 334.296875 66.53125 L 334.296875 21.167969 C 334.296875 12.816406 327.523438 6.046875 319.160156 6.046875 Z M 304.027344 48.386719 C 297.335938 48.386719 291.917969 42.972656 291.917969 36.289062 C 291.917969 29.605469 297.335938 24.195312 304.027344 24.195312 C 310.714844 24.195312 316.132812 29.605469 316.132812 36.289062 C 316.132812 42.972656 310.714844 48.386719 304.027344 48.386719 Z M 304.027344 48.386719 " fill-opacity="1" fill-rule="nonzero"/><path fill="#57a4ff" d="M 55.8125 350.804688 L 92.136719 350.804688 L 92.136719 368.953125 L 55.8125 368.953125 Z M 55.8125 350.804688 " fill-opacity="1" fill-rule="nonzero"/><path fill="#57a4ff" d="M 285.863281 350.804688 L 322.1875 350.804688 L 322.1875 368.953125 L 285.863281 368.953125 Z M 285.863281 350.804688 " fill-opacity="1" fill-rule="nonzero"/><path fill="#57a4ff" d="M 189 102.824219 C 128.816406 102.824219 80.027344 151.566406 80.027344 211.695312 C 80.027344 271.820312 128.816406 320.566406 189 320.566406 C 249.183594 320.566406 297.972656 271.820312 297.972656 211.695312 C 297.972656 151.566406 249.183594 102.824219 189 102.824219 Z M 189 127.015625 C 235.8125 127.015625 273.757812 164.925781 273.757812 211.695312 C 273.757812 211.695312 231.378906 229.839844 189 211.695312 C 146.621094 193.546875 104.242188 211.695312 104.242188 211.695312 C 104.242188 164.925781 142.1875 127.015625 189 127.015625 Z M 189 127.015625 " fill-opacity="1" fill-rule="nonzero"/><g clip-path="url(#e55e6012e0)"><path fill="#004fac" d="M 319.160156 0 L 58.839844 0 C 47.15625 0 37.648438 9.496094 37.648438 21.167969 L 37.648438 335.683594 C 37.648438 344.117188 42.605469 351.402344 49.757812 354.804688 L 49.757812 368.953125 C 49.757812 372.292969 52.46875 375 55.8125 375 L 92.136719 375 C 95.480469 375 98.191406 372.292969 98.191406 368.953125 L 98.191406 356.855469 L 279.808594 356.855469 L 279.808594 368.953125 C 279.808594 372.292969 282.519531 375 285.863281 375 L 322.1875 375 C 325.53125 375 328.242188 372.292969 328.242188 368.953125 L 328.242188 354.804688 C 335.394531 351.402344 340.351562 344.117188 340.351562 335.683594 L 340.351562 21.167969 C 340.351562 9.496094 330.84375 0 319.160156 0 Z M 49.757812 21.167969 C 49.757812 16.164062 53.828125 12.097656 58.839844 12.097656 L 267.703125 12.097656 L 267.703125 60.484375 L 49.757812 60.484375 Z M 86.082031 362.902344 L 61.867188 362.902344 L 61.867188 356.855469 L 86.082031 356.855469 Z M 316.132812 362.902344 L 291.917969 362.902344 L 291.917969 356.855469 L 316.132812 356.855469 Z M 328.242188 335.683594 C 328.242188 340.691406 324.171875 344.757812 319.160156 344.757812 L 58.839844 344.757812 C 53.828125 344.757812 49.757812 340.691406 49.757812 335.683594 L 49.757812 72.582031 L 328.242188 72.582031 Z M 328.242188 60.484375 L 279.808594 60.484375 L 279.808594 12.097656 L 319.160156 12.097656 C 324.171875 12.097656 328.242188 16.164062 328.242188 21.167969 Z M 328.242188 60.484375 " fill-opacity="1" fill-rule="nonzero"/></g><path fill="#004fac" d="M 304.027344 211.695312 C 304.027344 148.328125 252.425781 96.773438 189 96.773438 C 125.574219 96.773438 73.972656 148.328125 73.972656 211.695312 C 73.972656 275.058594 125.574219 326.613281 189 326.613281 C 252.425781 326.613281 304.027344 275.058594 304.027344 211.695312 Z M 189 314.515625 C 132.25 314.515625 86.082031 268.390625 86.082031 211.695312 C 86.082031 154.996094 132.25 108.871094 189 108.871094 C 245.75 108.871094 291.917969 154.996094 291.917969 211.695312 C 291.917969 268.390625 245.75 314.515625 189 314.515625 Z M 189 314.515625 " fill-opacity="1" fill-rule="nonzero"/><path fill="#004fac" d="M 189 120.96875 C 138.925781 120.96875 98.191406 161.667969 98.191406 211.695312 C 98.191406 261.71875 138.925781 302.417969 189 302.417969 C 239.074219 302.417969 279.808594 261.71875 279.808594 211.695312 C 279.808594 161.667969 239.074219 120.96875 189 120.96875 Z M 189 133.066406 C 230.992188 133.066406 265.410156 166.09375 267.589844 207.515625 C 256.65625 211.1875 223.738281 219.988281 191.386719 206.132812 C 158.46875 192.039062 126.007812 198.480469 110.777344 203.027344 C 115.113281 163.734375 148.535156 133.066406 189 133.066406 Z M 189 290.324219 C 147.007812 290.324219 112.589844 257.292969 110.410156 215.871094 C 121.34375 212.199219 154.261719 203.402344 186.613281 217.253906 C 201.675781 223.703125 216.636719 225.851562 229.902344 225.851562 C 245.632812 225.851562 258.960938 222.828125 267.222656 220.359375 C 262.890625 259.652344 229.464844 290.324219 189 290.324219 Z M 189 290.324219 " fill-opacity="1" fill-rule="nonzero"/><path fill="#004fac" d="M 61.867188 30.242188 L 122.40625 30.242188 C 125.75 30.242188 128.460938 27.535156 128.460938 24.195312 C 128.460938 20.851562 125.75 18.144531 122.40625 18.144531 L 61.867188 18.144531 C 58.523438 18.144531 55.8125 20.851562 55.8125 24.195312 C 55.8125 27.535156 58.523438 30.242188 61.867188 30.242188 Z M 61.867188 30.242188 " fill-opacity="1" fill-rule="nonzero"/><path fill="#004fac" d="M 61.867188 48.386719 L 92.136719 48.386719 C 95.480469 48.386719 98.191406 45.679688 98.191406 42.339844 C 98.191406 39 95.480469 36.289062 92.136719 36.289062 L 61.867188 36.289062 C 58.523438 36.289062 55.8125 39 55.8125 42.339844 C 55.8125 45.679688 58.523438 48.386719 61.867188 48.386719 Z M 61.867188 48.386719 " fill-opacity="1" fill-rule="nonzero"/><path fill="#004fac" d="M 304.027344 54.433594 C 314.039062 54.433594 322.1875 46.296875 322.1875 36.289062 C 322.1875 26.285156 314.039062 18.144531 304.027344 18.144531 C 294.011719 18.144531 285.863281 26.285156 285.863281 36.289062 C 285.863281 46.296875 294.011719 54.433594 304.027344 54.433594 Z M 304.027344 30.242188 C 307.363281 30.242188 310.082031 32.957031 310.082031 36.289062 C 310.082031 39.625 307.363281 42.339844 304.027344 42.339844 C 300.6875 42.339844 297.972656 39.625 297.972656 36.289062 C 297.972656 32.957031 300.6875 30.242188 304.027344 30.242188 Z M 304.027344 30.242188 " fill-opacity="1" fill-rule="nonzero"/><path fill="#004fac" d="M 316.132812 326.613281 L 273.757812 326.613281 C 270.414062 326.613281 267.703125 329.320312 267.703125 332.660156 C 267.703125 336 270.414062 338.710938 273.757812 338.710938 L 316.132812 338.710938 C 319.476562 338.710938 322.1875 336 322.1875 332.660156 C 322.1875 329.320312 319.476562 326.613281 316.132812 326.613281 Z M 316.132812 326.613281 " fill-opacity="1" fill-rule="nonzero"/><path fill="#004fac" d="M 316.132812 308.46875 L 297.972656 308.46875 C 294.628906 308.46875 291.917969 311.175781 291.917969 314.515625 C 291.917969 317.855469 294.628906 320.566406 297.972656 320.566406 L 316.132812 320.566406 C 319.476562 320.566406 322.1875 317.855469 322.1875 314.515625 C 322.1875 311.175781 319.476562 308.46875 316.132812 308.46875 Z M 316.132812 308.46875 " fill-opacity="1" fill-rule="nonzero"/></svg>