<svg xmlns="http://www.w3.org/2000/svg" xmlns:xlink="http://www.w3.org/1999/xlink" width="500" zoomAndPan="magnify" viewBox="0 0 375 374.999991" height="500" preserveAspectRatio="xMidYMid meet" version="1.0"><defs><clipPath id="84032c26fa"><path d="M 0 255 L 272 255 L 272 283.921875 L 0 283.921875 Z M 0 255 " clip-rule="nonzero"/></clipPath><clipPath id="ee24abbffd"><path d="M 172 173.300781 L 208 173.300781 L 208 210 L 172 210 Z M 172 173.300781 " clip-rule="nonzero"/></clipPath><clipPath id="b6408be9eb"><path d="M 184.601562 223.65625 C 169.335938 225.398438 155.578125 214.652344 153.863281 199.644531 C 152.148438 184.640625 163.128906 171.0625 178.394531 169.320312 C 193.652344 167.574219 207.417969 178.320312 209.132812 193.324219 C 210.847656 208.328125 199.859375 221.910156 184.601562 223.65625 " clip-rule="nonzero"/></clipPath><clipPath id="9381ad655a"><path d="M 169.054688 205 L 194.871094 205 L 194.871094 214 L 169.054688 214 Z M 169.054688 205 " clip-rule="nonzero"/></clipPath><clipPath id="8a18654269"><path d="M 184.601562 223.65625 C 169.335938 225.398438 155.578125 214.652344 153.863281 199.644531 C 152.148438 184.640625 163.128906 171.0625 178.394531 169.320312 C 193.652344 167.574219 207.417969 178.320312 209.132812 193.324219 C 210.847656 208.328125 199.859375 221.910156 184.601562 223.65625 " clip-rule="nonzero"/></clipPath><clipPath id="55c7736b35"><path d="M 165.722656 208.292969 L 193 208.292969 L 193 224 L 165.722656 224 Z M 165.722656 208.292969 " clip-rule="nonzero"/></clipPath><clipPath id="e8c1e48061"><path d="M 184.601562 223.65625 C 169.335938 225.398438 155.578125 214.652344 153.863281 199.644531 C 152.148438 184.640625 163.128906 171.0625 178.394531 169.320312 C 193.652344 167.574219 207.417969 178.320312 209.132812 193.324219 C 210.847656 208.328125 199.859375 221.910156 184.601562 223.65625 " clip-rule="nonzero"/></clipPath><clipPath id="4333909925"><path d="M 203.199219 186 L 208 186 L 208 195.796875 L 203.199219 195.796875 Z M 203.199219 186 " clip-rule="nonzero"/></clipPath><clipPath id="a912106b43"><path d="M 184.601562 223.65625 C 169.335938 225.398438 155.578125 214.652344 153.863281 199.644531 C 152.148438 184.640625 163.128906 171.0625 178.394531 169.320312 C 193.652344 167.574219 207.417969 178.320312 209.132812 193.324219 C 210.847656 208.328125 199.859375 221.910156 184.601562 223.65625 " clip-rule="nonzero"/></clipPath><clipPath id="661f8ed132"><path d="M 158.226562 169.132812 L 192.371094 169.132812 L 192.371094 209 L 158.226562 209 Z M 158.226562 169.132812 " clip-rule="nonzero"/></clipPath><clipPath id="ccb9105186"><path d="M 184.601562 223.65625 C 169.335938 225.398438 155.578125 214.652344 153.863281 199.644531 C 152.148438 184.640625 163.128906 171.0625 178.394531 169.320312 C 193.652344 167.574219 207.417969 178.320312 209.132812 193.324219 C 210.847656 208.328125 199.859375 221.910156 184.601562 223.65625 " clip-rule="nonzero"/></clipPath><clipPath id="c86cd1ac30"><path d="M 156.5625 206 L 165.722656 206 L 165.722656 211.625 L 156.5625 211.625 Z M 156.5625 206 " clip-rule="nonzero"/></clipPath><clipPath id="94268d22f4"><path d="M 184.601562 223.65625 C 169.335938 225.398438 155.578125 214.652344 153.863281 199.644531 C 152.148438 184.640625 163.128906 171.0625 178.394531 169.320312 C 193.652344 167.574219 207.417969 178.320312 209.132812 193.324219 C 210.847656 208.328125 199.859375 221.910156 184.601562 223.65625 " clip-rule="nonzero"/></clipPath><clipPath id="95f1d11905"><path d="M 157 209.125 L 164 209.125 L 164 214.957031 L 157 214.957031 Z M 157 209.125 " clip-rule="nonzero"/></clipPath><clipPath id="b29ade8d58"><path d="M 184.601562 223.65625 C 169.335938 225.398438 155.578125 214.652344 153.863281 199.644531 C 152.148438 184.640625 163.128906 171.0625 178.394531 169.320312 C 193.652344 167.574219 207.417969 178.320312 209.132812 193.324219 C 210.847656 208.328125 199.859375 221.910156 184.601562 223.65625 " clip-rule="nonzero"/></clipPath></defs><g clip-path="url(#84032c26fa)"><path fill="#367fa1" d="M 40.449219 257.539062 C 38.703125 257.585938 36.332031 258.304688 36.5625 260.035156 C 41.171875 261.121094 45.785156 262.207031 50.394531 263.292969 C 49.671875 267.660156 43.707031 268.234375 39.292969 267.886719 C 26.183594 266.875 12.945312 267.535156 0 269.851562 C 9.667969 273.777344 20.203125 273.429688 30.777344 273.089844 C 40.054688 272.789062 49.367188 272.492188 58.152344 275.070312 C 57.019531 277.144531 55.886719 279.214844 54.753906 281.289062 C 77.152344 284.042969 99.789062 283.980469 122.351562 283.90625 C 146.355469 283.828125 170.351562 283.753906 194.351562 283.679688 C 216.554688 283.609375 238.863281 283.53125 260.785156 280.023438 C 256.511719 278.691406 252.234375 277.359375 247.957031 276.023438 C 247.15625 275.777344 246.191406 275.300781 246.238281 274.46875 C 246.285156 273.636719 247.292969 273.273438 248.109375 273.109375 C 256.039062 271.550781 263.972656 269.992188 271.90625 268.429688 C 272.054688 265.367188 267.882812 264.363281 264.8125 264.417969 C 260.6875 264.492188 256.554688 264.566406 252.421875 264.640625 C 248.703125 264.707031 244.910156 264.992188 241.191406 264.832031 C 237.492188 264.671875 233.773438 264.636719 230.066406 264.558594 C 229.648438 264.550781 229.210938 264.535156 228.847656 264.320312 C 227.652344 263.617188 228.382812 261.789062 229.222656 260.6875 C 222.363281 260.40625 215.496094 260.125 208.644531 260.550781 C 202.753906 260.921875 196.917969 261.808594 191.042969 262.328125 C 182.25 263.109375 173.417969 263.0625 164.59375 263.015625 C 156.71875 262.976562 148.84375 262.933594 140.96875 262.894531 C 139.5 262.886719 137.796875 262.761719 136.960938 261.558594 C 136.601562 261.046875 136.4375 260.375 135.929688 260.007812 C 135.503906 259.695312 134.929688 259.6875 134.398438 259.691406 C 129.519531 259.707031 124.636719 259.785156 119.761719 259.914062 C 116.007812 260.015625 112.257812 260.148438 108.503906 260.316406 C 104.808594 260.480469 101.09375 260.847656 97.394531 260.902344 C 98.273438 260.210938 99.359375 259.695312 100.3125 259.113281 C 101.265625 258.535156 102.222656 257.953125 103.179688 257.371094 C 102.882812 257.554688 100.84375 256.726562 100.429688 256.628906 C 99.449219 256.40625 98.464844 256.21875 97.472656 256.066406 C 95.539062 255.777344 93.582031 255.628906 91.628906 255.628906 C 89.648438 255.625 87.667969 255.773438 85.707031 256.070312 C 83.777344 256.363281 81.925781 256.460938 79.957031 256.511719 C 71.515625 256.730469 63.074219 256.949219 54.632812 257.171875 C 49.902344 257.292969 45.175781 257.417969 40.449219 257.539062 " fill-opacity="1" fill-rule="nonzero"/></g><path fill="#2e6e8d" d="M 154.050781 273.453125 C 109.703125 273.453125 73.75 271.359375 73.75 268.769531 C 73.75 268.015625 76.796875 267.304688 82.21875 266.675781 L 82.21875 267.648438 L 98.484375 267.648438 L 98.484375 265.390625 C 106.515625 264.941406 116.148438 264.589844 126.832031 264.363281 L 126.832031 267.648438 L 143.09375 267.648438 L 143.09375 264.128906 C 146.679688 264.101562 150.335938 264.085938 154.050781 264.085938 C 198.402344 264.085938 234.351562 266.183594 234.351562 268.769531 C 234.351562 271.359375 198.402344 273.453125 154.050781 273.453125 " fill-opacity="1" fill-rule="nonzero"/><path fill="#8c918f" d="M 78.039062 125.949219 L 227.097656 125.949219 L 227.097656 117.472656 L 78.039062 117.472656 Z M 78.039062 125.949219 " fill-opacity="1" fill-rule="nonzero"/><path fill="#2e2d2e" d="M 82.21875 267.648438 L 98.484375 267.648438 L 98.484375 260.527344 L 82.21875 260.527344 Z M 82.21875 267.648438 " fill-opacity="1" fill-rule="nonzero"/><path fill="#2e2d2e" d="M 222.71875 267.648438 L 206.457031 267.648438 L 206.457031 260.527344 L 222.71875 260.527344 L 222.71875 267.648438 " fill-opacity="1" fill-rule="nonzero"/><path fill="#2e2d2e" d="M 126.832031 267.648438 L 143.097656 267.648438 L 143.097656 260.527344 L 126.832031 260.527344 Z M 126.832031 267.648438 " fill-opacity="1" fill-rule="nonzero"/><path fill="#e3e2e0" d="M 179.210938 229.207031 C 161.242188 229.207031 146.683594 214.636719 146.683594 196.660156 C 146.683594 178.6875 161.242188 164.117188 179.210938 164.117188 C 197.171875 164.117188 211.738281 178.6875 211.738281 196.660156 C 211.738281 214.636719 197.171875 229.207031 179.210938 229.207031 M 179.210938 159.035156 C 158.4375 159.035156 141.597656 175.878906 141.597656 196.660156 C 141.597656 217.445312 158.4375 234.292969 179.210938 234.292969 C 199.980469 234.292969 216.816406 217.445312 216.816406 196.660156 C 216.816406 175.878906 199.980469 159.035156 179.210938 159.035156 " fill-opacity="1" fill-rule="nonzero"/><path fill="#e3e2e0" d="M 78.039062 263.351562 L 227.097656 263.351562 L 227.097656 125.949219 L 78.039062 125.949219 Z M 78.039062 263.351562 " fill-opacity="1" fill-rule="nonzero"/><path fill="#7c797f" d="M 179.210938 231.128906 C 160.261719 231.128906 144.898438 216.160156 144.898438 197.691406 C 144.898438 179.230469 160.261719 164.257812 179.210938 164.257812 C 198.160156 164.257812 213.519531 179.230469 213.519531 197.691406 C 213.519531 216.160156 198.160156 231.128906 179.210938 231.128906 M 179.210938 159.035156 C 157.300781 159.035156 139.539062 176.34375 139.539062 197.691406 C 139.539062 219.042969 157.300781 236.355469 179.210938 236.355469 C 201.121094 236.355469 218.878906 219.042969 218.878906 197.691406 C 218.878906 176.34375 201.121094 159.035156 179.210938 159.035156 " fill-opacity="1" fill-rule="nonzero"/><path fill="#7c797f" d="M 131.652344 152.054688 L 226.765625 152.054688 L 226.765625 126.28125 L 131.652344 126.28125 L 131.652344 152.054688 M 227.429688 152.71875 L 130.988281 152.71875 L 130.988281 125.617188 L 227.429688 125.617188 L 227.429688 152.71875 " fill-opacity="1" fill-rule="nonzero"/><path fill="#837f80" d="M 131.320312 263.351562 L 227.097656 263.351562 L 227.097656 240.300781 L 131.320312 240.300781 Z M 131.320312 263.351562 " fill-opacity="1" fill-rule="nonzero"/><path fill="#837f80" d="M 78.039062 263.351562 L 131.320312 263.351562 L 131.320312 240.300781 L 78.039062 240.300781 Z M 78.039062 263.351562 " fill-opacity="1" fill-rule="nonzero"/><path fill="#7c797f" d="M 214.785156 196.484375 C 214.785156 214.460938 200.476562 229.027344 182.824219 229.027344 C 165.167969 229.027344 150.859375 214.460938 150.859375 196.484375 C 150.859375 178.511719 165.167969 163.941406 182.824219 163.941406 C 200.476562 163.941406 214.785156 178.511719 214.785156 196.484375 " fill-opacity="1" fill-rule="nonzero"/><path fill="#b1bcb6" d="M 131.320312 263.351562 L 227.097656 263.351562 L 227.097656 244.144531 L 131.320312 244.144531 Z M 131.320312 263.351562 " fill-opacity="1" fill-rule="nonzero"/><path fill="#b1bcb6" d="M 78.039062 263.351562 L 131.320312 263.351562 L 131.320312 244.144531 L 78.039062 244.144531 Z M 78.039062 263.351562 " fill-opacity="1" fill-rule="nonzero"/><path fill="#7c797f" d="M 206.789062 258.953125 L 223.828125 258.953125 L 223.828125 249.449219 L 206.789062 249.449219 Z M 224.492188 259.617188 L 206.125 259.617188 L 206.125 248.785156 L 224.492188 248.785156 L 224.492188 259.617188 " fill-opacity="1" fill-rule="nonzero"/><path fill="#6c7172" d="M 130.988281 125.949219 L 78.039062 125.949219 L 78.039062 117.472656 L 131.320312 117.472656 L 131.320312 125.617188 L 130.988281 125.617188 L 130.988281 125.949219 " fill-opacity="1" fill-rule="nonzero"/><path fill="#b1b1b0" d="M 131.320312 240.300781 L 78.039062 240.300781 L 78.039062 125.949219 L 130.988281 125.949219 L 130.988281 152.71875 L 131.320312 152.71875 L 131.320312 240.300781 " fill-opacity="1" fill-rule="nonzero"/><path fill="#605e64" d="M 131.320312 152.71875 L 130.988281 152.71875 L 130.988281 125.617188 L 131.320312 125.617188 L 131.320312 152.71875 " fill-opacity="1" fill-rule="nonzero"/><path fill="#666365" d="M 78.039062 244.144531 L 131.320312 244.144531 L 131.320312 240.300781 L 78.039062 240.300781 Z M 78.039062 244.144531 " fill-opacity="1" fill-rule="nonzero"/><path fill="#899492" d="M 131.320312 263.351562 L 78.039062 263.351562 L 78.039062 244.144531 L 131.320312 244.144531 L 131.320312 263.351562 " fill-opacity="1" fill-rule="nonzero"/><path fill="#449abb" d="M 154.820312 234.984375 C 154.5625 236.492188 154.324219 238.0625 154.75 239.527344 C 155.183594 240.996094 156.476562 242.324219 158.003906 242.277344 C 160.5 242.203125 161.472656 239.042969 161.753906 236.558594 C 163.238281 236.492188 164.097656 238.230469 164.308594 239.699219 C 164.523438 241.171875 164.609375 242.890625 165.828125 243.742188 C 166.460938 244.183594 167.28125 244.277344 168.050781 244.210938 C 171.292969 243.945312 173.753906 241.335938 176.398438 239.441406 C 179.042969 237.546875 183.089844 236.4375 185.28125 238.84375 C 186.574219 240.269531 186.667969 242.386719 186.695312 244.3125 C 186.742188 248.066406 186.789062 251.816406 186.835938 255.566406 C 186.859375 257.351562 186.898438 259.207031 187.703125 260.796875 C 188.511719 262.386719 190.332031 263.617188 192.050781 263.140625 C 194.335938 262.503906 194.953125 259.601562 195.105469 257.234375 C 195.496094 251.027344 195.554688 244.800781 195.265625 238.585938 C 195.1875 236.746094 195.144531 234.683594 196.378906 233.320312 C 197.441406 232.144531 199.140625 231.84375 200.535156 231.089844 C 204.550781 228.933594 205.101562 222.394531 201.503906 219.597656 C 199.523438 218.054688 196.882812 217.710938 194.378906 217.539062 C 187.699219 217.085938 180.964844 217.480469 174.382812 218.683594 C 171.078125 219.289062 167.8125 220.09375 164.605469 221.101562 C 162.992188 221.609375 161.394531 222.171875 159.8125 222.78125 C 158.808594 223.167969 157.476562 223.464844 156.984375 224.535156 C 156.394531 225.832031 156.277344 227.566406 155.988281 228.945312 C 155.558594 230.953125 155.171875 232.964844 154.820312 234.984375 " fill-opacity="1" fill-rule="nonzero"/><path fill="#2a2d38" d="M 222.410156 145.523438 L 201.0625 145.523438 L 201.0625 132.8125 L 222.410156 132.8125 L 222.410156 145.523438 " fill-opacity="1" fill-rule="nonzero"/><path fill="#9f9f9e" d="M 198.746094 133.574219 L 194.34375 133.574219 L 194.34375 129.167969 L 198.746094 129.167969 L 198.746094 133.574219 " fill-opacity="1" fill-rule="nonzero"/><path fill="#9f9f9e" d="M 198.746094 139.167969 L 194.34375 139.167969 L 194.34375 134.761719 L 198.746094 134.761719 L 198.746094 139.167969 " fill-opacity="1" fill-rule="nonzero"/><path fill="#9f9f9e" d="M 198.746094 144.761719 L 194.34375 144.761719 L 194.34375 140.355469 L 198.746094 140.355469 L 198.746094 144.761719 " fill-opacity="1" fill-rule="nonzero"/><path fill="#9f9f9e" d="M 192.648438 133.574219 L 188.242188 133.574219 L 188.242188 129.167969 L 192.648438 129.167969 L 192.648438 133.574219 " fill-opacity="1" fill-rule="nonzero"/><path fill="#9f9f9e" d="M 192.648438 139.167969 L 188.242188 139.167969 L 188.242188 134.761719 L 192.648438 134.761719 L 192.648438 139.167969 " fill-opacity="1" fill-rule="nonzero"/><path fill="#9f9f9e" d="M 192.648438 144.761719 L 188.242188 144.761719 L 188.242188 140.355469 L 192.648438 140.355469 L 192.648438 144.761719 " fill-opacity="1" fill-rule="nonzero"/><path fill="#ec2c47" d="M 174.210938 139.167969 C 174.210938 136.410156 176.449219 134.167969 179.210938 134.167969 C 181.96875 134.167969 184.207031 136.410156 184.207031 139.167969 C 184.207031 141.929688 181.96875 144.167969 179.210938 144.167969 C 176.449219 144.167969 174.210938 141.929688 174.210938 139.167969 " fill-opacity="1" fill-rule="nonzero"/><path fill="#b1b1b0" d="M 144.875 144.933594 C 141.210938 144.933594 138.238281 141.960938 138.238281 138.292969 C 138.238281 134.628906 141.210938 131.652344 144.875 131.652344 C 148.539062 131.652344 151.511719 134.628906 151.511719 138.292969 C 151.511719 141.960938 148.539062 144.933594 144.875 144.933594 " fill-opacity="1" fill-rule="nonzero"/><path fill="#b1b1b0" d="M 160.800781 144.933594 C 157.136719 144.933594 154.164062 141.960938 154.164062 138.292969 C 154.164062 134.628906 157.136719 131.652344 160.800781 131.652344 C 164.464844 131.652344 167.433594 134.628906 167.433594 138.292969 C 167.433594 141.960938 164.464844 144.933594 160.800781 144.933594 " fill-opacity="1" fill-rule="nonzero"/><path fill="#fafafa" d="M 152.835938 138.292969 C 152.835938 141.960938 149.867188 144.933594 146.203125 144.933594 C 142.539062 144.933594 139.570312 141.960938 139.570312 138.292969 C 139.570312 134.628906 142.539062 131.652344 146.203125 131.652344 C 149.867188 131.652344 152.835938 134.628906 152.835938 138.292969 " fill-opacity="1" fill-rule="nonzero"/><path fill="#7c797f" d="M 146.203125 131.984375 C 142.726562 131.984375 139.898438 134.816406 139.898438 138.292969 C 139.898438 141.773438 142.726562 144.601562 146.203125 144.601562 C 149.679688 144.601562 152.503906 141.773438 152.503906 138.292969 C 152.503906 134.816406 149.679688 131.984375 146.203125 131.984375 Z M 146.203125 145.265625 C 142.359375 145.265625 139.234375 142.136719 139.234375 138.292969 C 139.234375 134.449219 142.359375 131.320312 146.203125 131.320312 C 150.042969 131.320312 153.167969 134.449219 153.167969 138.292969 C 153.167969 142.136719 150.042969 145.265625 146.203125 145.265625 " fill-opacity="1" fill-rule="nonzero"/><path fill="#ec2c47" d="M 143.632812 133.855469 C 143.632812 133.28125 144.101562 132.8125 144.675781 132.8125 C 145.253906 132.8125 145.722656 133.28125 145.722656 133.855469 C 145.722656 134.4375 145.253906 134.902344 144.675781 134.902344 C 144.101562 134.902344 143.632812 134.4375 143.632812 133.855469 " fill-opacity="1" fill-rule="nonzero"/><path fill="#fafafa" d="M 159.769531 144.5 C 156.34375 143.199219 154.625 139.363281 155.925781 135.9375 C 157.226562 132.507812 161.054688 130.785156 164.484375 132.085938 C 167.910156 133.386719 169.628906 137.222656 168.332031 140.648438 C 167.03125 144.078125 163.199219 145.800781 159.769531 144.5 " fill-opacity="1" fill-rule="nonzero"/><path fill="#7c797f" d="M 162.125 131.980469 C 161.242188 131.980469 160.367188 132.171875 159.542969 132.539062 C 158.007812 133.230469 156.832031 134.476562 156.234375 136.054688 C 155.636719 137.628906 155.6875 139.339844 156.375 140.878906 C 157.070312 142.417969 158.316406 143.589844 159.890625 144.191406 C 161.460938 144.785156 163.171875 144.734375 164.710938 144.042969 C 166.246094 143.355469 167.421875 142.105469 168.019531 140.53125 C 169.253906 137.28125 167.613281 133.632812 164.363281 132.394531 C 163.636719 132.117188 162.878906 131.980469 162.125 131.980469 Z M 162.132812 145.265625 C 161.296875 145.265625 160.460938 145.113281 159.652344 144.808594 C 157.914062 144.148438 156.535156 142.847656 155.773438 141.148438 C 155.011719 139.453125 154.953125 137.558594 155.617188 135.820312 C 156.273438 134.078125 157.574219 132.699219 159.273438 131.933594 C 160.96875 131.171875 162.859375 131.113281 164.601562 131.777344 C 168.191406 133.140625 170.003906 137.171875 168.640625 140.765625 C 167.980469 142.507812 166.679688 143.886719 164.984375 144.648438 C 164.070312 145.0625 163.101562 145.265625 162.132812 145.265625 " fill-opacity="1" fill-rule="nonzero"/><path fill="#ec2c47" d="M 167.183594 137.460938 C 167.722656 137.667969 167.992188 138.273438 167.789062 138.8125 C 167.582031 139.351562 166.980469 139.625 166.441406 139.417969 C 165.902344 139.214844 165.632812 138.609375 165.835938 138.070312 C 166.042969 137.53125 166.644531 137.257812 167.183594 137.460938 " fill-opacity="1" fill-rule="nonzero"/><path fill="#38445f" d="M 213.457031 196.484375 C 213.457031 214.460938 199.148438 229.027344 181.496094 229.027344 C 163.84375 229.027344 149.53125 214.460938 149.53125 196.484375 C 149.53125 178.511719 163.84375 163.941406 181.496094 163.941406 C 199.148438 163.941406 213.457031 178.511719 213.457031 196.484375 " fill-opacity="1" fill-rule="nonzero"/><path fill="#e7e7e6" d="M 182.058594 229.027344 C 164.097656 229.027344 149.53125 214.460938 149.53125 196.484375 C 149.53125 178.511719 164.097656 163.941406 182.058594 163.941406 C 200.027344 163.941406 214.589844 178.511719 214.589844 196.484375 C 214.589844 214.460938 200.027344 229.027344 182.058594 229.027344 M 182.058594 158.859375 C 161.289062 158.859375 144.453125 175.703125 144.453125 196.484375 C 144.453125 217.265625 161.289062 234.117188 182.058594 234.117188 C 202.832031 234.117188 219.671875 217.265625 219.671875 196.484375 C 219.671875 175.703125 202.832031 158.859375 182.058594 158.859375 " fill-opacity="1" fill-rule="nonzero"/><path fill="#acc9ce" d="M 213.113281 201.261719 C 209.988281 203.765625 208.234375 209.144531 202.054688 210.089844 C 193.015625 211.46875 192.132812 205.777344 184.207031 205.089844 C 180.925781 204.804688 178.894531 206.1875 176.9375 207.570312 C 174.164062 209.53125 171.546875 211.484375 165.769531 208.707031 C 158.792969 205.347656 153.574219 205.949219 151.109375 206.585938 C 155.285156 219.613281 167.308594 229.027344 181.496094 229.027344 C 197.554688 229.027344 210.84375 216.96875 213.113281 201.261719 " fill-opacity="1" fill-rule="nonzero"/><path fill="#54b9da" d="M 202 213.589844 C 192.96875 214.976562 192.078125 209.28125 184.15625 208.59375 C 180.878906 208.308594 178.84375 209.6875 176.882812 211.074219 C 174.113281 213.03125 171.492188 214.992188 165.714844 212.207031 C 159.792969 209.355469 155.144531 209.363281 152.367188 209.820312 C 157.367188 221.136719 168.515625 229.027344 181.496094 229.027344 C 196.027344 229.027344 208.265625 219.136719 212.144531 205.617188 C 209.535156 208.324219 207.554688 212.742188 202 213.589844 " fill-opacity="1" fill-rule="nonzero"/><path fill="#e3e2e0" d="M 203.152344 197.691406 C 203.152344 204.207031 206.707031 209.84375 211.886719 212.601562 C 215.019531 207.851562 216.816406 202.351562 216.816406 196.484375 C 216.816406 191.371094 215.457031 186.53125 213.027344 182.226562 C 207.234375 184.730469 203.152344 190.707031 203.152344 197.691406 " fill-opacity="1" fill-rule="nonzero"/><g clip-path="url(#ee24abbffd)"><g clip-path="url(#b6408be9eb)"><path fill="#5c6981" d="M 172.167969 209.980469 L 197.402344 173.988281 C 201.828125 177.007812 205.339844 181.28125 207.375 186.355469 C 205.300781 188.714844 203.863281 191.699219 203.355469 195.015625 L 194.203125 209.148438 C 191.207031 207.742188 188.988281 205.503906 184.207031 205.089844 C 183.914062 205.066406 183.628906 205.050781 183.359375 205.050781 C 180.566406 205.050781 178.71875 206.3125 176.9375 207.570312 C 175.464844 208.609375 174.039062 209.644531 172.167969 209.980469 " fill-opacity="1" fill-rule="nonzero"/></g></g><g clip-path="url(#9381ad655a)"><g clip-path="url(#8a18654269)"><path fill="#bed4d9" d="M 170.851562 213.589844 C 170.480469 213.589844 170.097656 213.566406 169.691406 213.507812 L 172.167969 209.980469 C 174.039062 209.644531 175.464844 208.609375 176.9375 207.570312 C 178.71875 206.3125 180.566406 205.050781 183.359375 205.050781 C 183.628906 205.050781 183.914062 205.066406 184.207031 205.089844 C 188.988281 205.503906 191.207031 207.742188 194.203125 209.148438 L 192.5 211.777344 C 190.21875 210.460938 188.027344 208.929688 184.15625 208.59375 C 183.863281 208.566406 183.578125 208.558594 183.304688 208.558594 C 180.515625 208.558594 178.667969 209.8125 176.882812 211.074219 C 175.101562 212.332031 173.382812 213.589844 170.851562 213.589844 " fill-opacity="1" fill-rule="nonzero"/></g></g><g clip-path="url(#55c7736b35)"><g clip-path="url(#e8c1e48061)"><path fill="#6ecae2" d="M 181.351562 223.839844 C 175.632812 223.839844 170.246094 222.109375 165.769531 219.105469 L 169.691406 213.507812 C 170.097656 213.566406 170.480469 213.589844 170.851562 213.589844 C 173.382812 213.589844 175.101562 212.332031 176.882812 211.074219 C 178.667969 209.8125 180.515625 208.558594 183.304688 208.558594 C 183.578125 208.558594 183.863281 208.566406 184.15625 208.59375 C 188.027344 208.929688 190.21875 210.460938 192.5 211.777344 L 184.828125 223.625 C 184.75 223.636719 184.675781 223.644531 184.601562 223.65625 C 183.507812 223.777344 182.425781 223.839844 181.351562 223.839844 " fill-opacity="1" fill-rule="nonzero"/></g></g><g clip-path="url(#4333909925)"><g clip-path="url(#a912106b43)"><path fill="#e9e8e7" d="M 203.355469 195.015625 C 203.863281 191.699219 205.300781 188.714844 207.375 186.355469 C 207.582031 186.871094 207.773438 187.394531 207.949219 187.925781 L 203.355469 195.015625 " fill-opacity="1" fill-rule="nonzero"/></g></g><g clip-path="url(#661f8ed132)"><g clip-path="url(#ccb9105186)"><path fill="#5c6981" d="M 165.476562 208.566406 C 163.03125 207.421875 160.804688 206.761719 158.84375 206.414062 L 184.855469 169.316406 C 187.40625 169.609375 189.863281 170.246094 192.175781 171.1875 L 165.476562 208.566406 " fill-opacity="1" fill-rule="nonzero"/></g></g><g clip-path="url(#c86cd1ac30)"><g clip-path="url(#94268d22f4)"><path fill="#bed4d9" d="M 163.550781 211.265625 C 161.125 210.324219 158.945312 209.863281 157.078125 209.683594 C 157 209.542969 156.921875 209.402344 156.847656 209.257812 L 158.84375 206.414062 C 160.804688 206.761719 163.03125 207.421875 165.476562 208.566406 L 163.550781 211.265625 " fill-opacity="1" fill-rule="nonzero"/></g></g><g clip-path="url(#95f1d11905)"><g clip-path="url(#b29ade8d58)"><path fill="#6ecae2" d="M 160.910156 214.957031 C 159.433594 213.371094 158.144531 211.601562 157.078125 209.683594 C 158.945312 209.863281 161.125 210.324219 163.550781 211.265625 L 160.910156 214.957031 " fill-opacity="1" fill-rule="nonzero"/></g></g><path fill="#54b9da" d="M 173.25 206.898438 C 173.25 207.601562 172.679688 208.175781 171.972656 208.175781 C 171.265625 208.175781 170.695312 207.601562 170.695312 206.898438 C 170.695312 206.191406 171.265625 205.617188 171.972656 205.617188 C 172.679688 205.617188 173.25 206.191406 173.25 206.898438 " fill-opacity="1" fill-rule="nonzero"/><path fill="#54b9da" d="M 177.65625 201.925781 C 177.65625 202.632812 177.085938 203.207031 176.378906 203.207031 C 175.671875 203.207031 175.097656 202.632812 175.097656 201.925781 C 175.097656 201.222656 175.671875 200.644531 176.378906 200.644531 C 177.085938 200.644531 177.65625 201.222656 177.65625 201.925781 " fill-opacity="1" fill-rule="nonzero"/><path fill="#54b9da" d="M 192.5625 203.734375 C 192.5625 204.441406 191.996094 205.011719 191.285156 205.011719 C 190.578125 205.011719 190.007812 204.441406 190.007812 203.734375 C 190.007812 203.027344 190.578125 202.453125 191.285156 202.453125 C 191.996094 202.453125 192.5625 203.027344 192.5625 203.734375 " fill-opacity="1" fill-rule="nonzero"/><path fill="#54b9da" d="M 201.9375 207.578125 C 201.9375 208.285156 201.367188 208.855469 200.660156 208.855469 C 199.953125 208.855469 199.382812 208.285156 199.382812 207.578125 C 199.382812 206.867188 199.953125 206.292969 200.660156 206.292969 C 201.367188 206.292969 201.9375 206.867188 201.9375 207.578125 " fill-opacity="1" fill-rule="nonzero"/><path fill="#21406d" d="M 254.871094 267.207031 L 302.585938 263.855469 L 302.578125 252.496094 L 253.507812 252.511719 L 254.871094 267.207031 " fill-opacity="1" fill-rule="nonzero"/><path fill="#2d1714" d="M 308.28125 95.34375 C 311.109375 97.058594 312.953125 100.023438 314.25 103.0625 C 318.316406 112.59375 318.054688 123.824219 323.605469 132.570312 C 324.925781 134.65625 326.652344 136.621094 328.957031 137.5 C 325.945312 137.257812 323.121094 135.992188 320.367188 134.738281 C 318.871094 134.058594 317.332031 133.347656 316.214844 132.140625 C 315.085938 130.925781 314.496094 129.320312 313.964844 127.75 C 312.417969 123.21875 311.121094 118.59375 309.3125 114.15625 C 307.652344 110.085938 305.535156 106.128906 302.5625 102.863281 C 301.441406 101.628906 299.515625 100.289062 299.347656 98.480469 C 299.203125 96.902344 300.765625 95.300781 302.0625 94.65625 C 304.054688 93.667969 306.464844 94.246094 308.28125 95.34375 " fill-opacity="1" fill-rule="nonzero"/><path fill="#f467a7" d="M 300.074219 99.84375 C 299.332031 99.898438 298.683594 99.125 298.765625 98.382812 C 298.84375 97.644531 299.519531 97.050781 300.257812 96.945312 C 300.996094 96.84375 301.75 97.167969 302.289062 97.679688 C 302.503906 97.890625 302.695312 98.136719 302.753906 98.429688 C 302.875 99.03125 302.363281 99.613281 301.777344 99.800781 C 301.191406 99.984375 300.5625 99.871094 299.957031 99.761719 L 300.074219 99.84375 " fill-opacity="1" fill-rule="nonzero"/><path fill="#2d1714" d="M 308.410156 112.011719 C 311.167969 123.296875 305.773438 134.308594 296.363281 136.609375 C 286.949219 138.90625 277.089844 131.625 274.335938 120.335938 C 271.578125 109.054688 276.976562 98.039062 286.382812 95.742188 C 295.796875 93.441406 305.65625 100.726562 308.410156 112.011719 " fill-opacity="1" fill-rule="nonzero"/><path fill="#f05b1a" d="M 259.070312 177.707031 C 257.328125 179.664062 257.882812 183 260.308594 185.15625 C 262.730469 187.3125 266.105469 187.472656 267.84375 185.515625 C 269.585938 183.558594 269.03125 180.226562 266.605469 178.066406 C 264.183594 175.914062 260.808594 175.75 259.070312 177.707031 " fill-opacity="1" fill-rule="nonzero"/><path fill="#f05b1a" d="M 284.988281 148.511719 C 283.25 150.46875 283.804688 153.800781 286.226562 155.957031 C 288.652344 158.113281 292.023438 158.277344 293.765625 156.320312 C 295.507812 154.363281 294.953125 151.027344 292.527344 148.875 C 290.101562 146.714844 286.730469 146.554688 284.988281 148.511719 " fill-opacity="1" fill-rule="nonzero"/><path fill="#f05b1a" d="M 284.988281 148.511719 L 293.765625 156.320312 L 267.664062 185.6875 L 258.886719 177.878906 L 284.988281 148.511719 " fill-opacity="1" fill-rule="nonzero"/><path fill="#f05b1a" d="M 266.570312 152.34375 L 269.425781 180.511719 L 258.410156 181.515625 C 258.410156 181.515625 256.777344 158.347656 254.390625 153.832031 L 266.570312 152.34375 " fill-opacity="1" fill-rule="nonzero"/><path fill="#f3ac71" d="M 277.585938 127.890625 C 278.484375 124.703125 281.792969 127.671875 281.792969 127.671875 L 284.1875 134.050781 C 279.796875 134.144531 276.691406 131.078125 277.585938 127.890625 " fill-opacity="1" fill-rule="nonzero"/><path fill="#e37748" d="M 281.945312 129.226562 C 281.945312 129.226562 280.179688 127.296875 279.199219 128.257812 C 278.214844 129.222656 279.324219 132.683594 283.019531 132.539062 L 281.945312 129.226562 " fill-opacity="1" fill-rule="nonzero"/><path fill="#f3ac71" d="M 302.535156 148.441406 L 294.507812 150.402344 L 291.585938 138.433594 L 299.613281 136.46875 L 302.535156 148.441406 " fill-opacity="1" fill-rule="nonzero"/><path fill="#d6562b" d="M 299.015625 134.019531 L 293.015625 135.484375 L 293.003906 135.5 C 292.617188 136.15625 292.046875 137.210938 291.570312 138.371094 L 292.921875 143.917969 C 293.035156 143.902344 293.144531 143.878906 293.25 143.851562 C 296.128906 143.144531 298.464844 140.652344 300.015625 138.109375 L 299.015625 134.019531 " fill-opacity="1" fill-rule="nonzero"/><path fill="#f3ac71" d="M 300.460938 113.808594 C 302.054688 120.332031 298.054688 126.914062 291.535156 128.507812 C 285.011719 130.101562 278.433594 126.105469 276.839844 119.578125 C 275.25 113.054688 279.246094 106.46875 285.765625 104.878906 C 292.289062 103.28125 298.867188 107.28125 300.460938 113.808594 " fill-opacity="1" fill-rule="nonzero"/><path fill="#f3ac71" d="M 303.648438 126.863281 C 305.238281 133.386719 301.03125 139.277344 294.722656 141.5625 C 290.871094 142.964844 282.496094 142.390625 280.902344 135.863281 C 279.308594 129.339844 282.433594 119.527344 288.953125 117.933594 C 295.476562 116.339844 302.054688 120.335938 303.648438 126.863281 " fill-opacity="1" fill-rule="nonzero"/><path fill="#f3ac71" d="M 303.886719 127.84375 L 280.269531 133.617188 L 276.742188 119.171875 L 300.363281 113.402344 L 303.886719 127.84375 " fill-opacity="1" fill-rule="nonzero"/><path fill="#f3ac71" d="M 304.734375 121.046875 C 302.472656 118.632812 300.898438 122.792969 300.898438 122.792969 L 301.714844 129.5625 C 305.652344 127.617188 307 123.460938 304.734375 121.046875 " fill-opacity="1" fill-rule="nonzero"/><path fill="#e37748" d="M 301.480469 124.238281 C 301.480469 124.238281 302.160156 121.714844 303.472656 122.113281 C 304.789062 122.515625 305.398438 126.101562 302.054688 127.675781 L 301.480469 124.238281 " fill-opacity="1" fill-rule="nonzero"/><path fill="#35333f" d="M 291.835938 125.125 C 292.007812 125.832031 292.613281 126.289062 293.183594 126.152344 C 293.757812 126.011719 294.078125 125.328125 293.90625 124.617188 C 293.734375 123.910156 293.128906 123.453125 292.558594 123.589844 C 291.984375 123.726562 291.664062 124.414062 291.835938 125.125 " fill-opacity="1" fill-rule="nonzero"/><path fill="#35333f" d="M 293.203125 123.917969 C 293.328125 123.960938 293.46875 123.921875 293.585938 123.847656 C 293.707031 123.777344 293.785156 123.652344 293.835938 123.53125 C 293.878906 123.40625 293.886719 123.277344 293.867188 123.15625 C 293.847656 123.035156 293.808594 122.921875 293.734375 122.816406 C 293.644531 123.058594 293.621094 123.261719 293.550781 123.4375 C 293.488281 123.613281 293.40625 123.761719 293.203125 123.917969 " fill-opacity="1" fill-rule="nonzero"/><path fill="#35333f" d="M 283.089844 127.257812 C 283.261719 127.96875 282.941406 128.65625 282.367188 128.796875 C 281.796875 128.9375 281.191406 128.472656 281.019531 127.765625 C 280.847656 127.058594 281.171875 126.371094 281.742188 126.234375 C 282.316406 126.09375 282.917969 126.554688 283.089844 127.257812 " fill-opacity="1" fill-rule="nonzero"/><path fill="#35333f" d="M 281.324219 126.820312 C 281.230469 126.914062 281.089844 126.945312 280.953125 126.9375 C 280.808594 126.925781 280.683594 126.855469 280.585938 126.769531 C 280.488281 126.675781 280.421875 126.570312 280.382812 126.453125 C 280.34375 126.335938 280.328125 126.214844 280.347656 126.085938 C 280.53125 126.261719 280.648438 126.429688 280.792969 126.554688 C 280.929688 126.683594 281.070312 126.773438 281.324219 126.820312 " fill-opacity="1" fill-rule="nonzero"/><path fill="#d6562b" d="M 287.648438 127.652344 C 287.824219 128.15625 287.949219 128.667969 288.058594 129.183594 C 288.167969 129.695312 288.257812 130.210938 288.335938 130.730469 L 288.445312 131.503906 L 288.457031 131.597656 L 288.472656 131.683594 L 288.507812 131.847656 L 288.5625 132.011719 L 288.613281 132.128906 L 288.636719 132.167969 C 288.855469 132.574219 289.253906 132.910156 289.726562 133.152344 C 289.59375 133.152344 289.457031 133.125 289.324219 133.089844 L 289.128906 133.023438 L 288.941406 132.9375 C 288.695312 132.808594 288.464844 132.625 288.289062 132.390625 C 288.199219 132.273438 288.128906 132.140625 288.074219 132 L 288 131.789062 L 287.972656 131.683594 L 287.953125 131.585938 C 287.925781 131.453125 287.902344 131.324219 287.882812 131.199219 L 287.816406 130.808594 C 287.742188 130.285156 287.6875 129.761719 287.648438 129.238281 C 287.621094 128.714844 287.609375 128.1875 287.648438 127.652344 " fill-opacity="1" fill-rule="nonzero"/><path fill="#d6562b" d="M 287.277344 136.09375 C 287.558594 136.199219 287.84375 136.277344 288.128906 136.335938 C 288.410156 136.398438 288.695312 136.4375 288.976562 136.453125 C 289.542969 136.488281 290.105469 136.429688 290.640625 136.273438 L 290.839844 136.214844 L 290.9375 136.179688 L 291.230469 136.0625 L 291.421875 135.976562 C 291.675781 135.851562 291.929688 135.71875 292.164062 135.558594 C 292.648438 135.246094 293.097656 134.875 293.558594 134.480469 C 293.269531 135.011719 292.882812 135.488281 292.414062 135.890625 C 292.179688 136.09375 291.921875 136.265625 291.652344 136.417969 C 291.378906 136.570312 291.085938 136.6875 290.785156 136.78125 C 290.179688 136.953125 289.535156 136.976562 288.925781 136.859375 C 288.621094 136.800781 288.324219 136.710938 288.046875 136.582031 C 287.90625 136.515625 287.769531 136.445312 287.644531 136.367188 C 287.511719 136.285156 287.390625 136.195312 287.277344 136.09375 " fill-opacity="1" fill-rule="nonzero"/><path fill="#2d1714" d="M 279.3125 124.488281 C 279.488281 123.601562 280.285156 122.855469 281.230469 122.652344 C 281.699219 122.574219 282.183594 122.582031 282.625 122.726562 C 282.847656 122.78125 283.050781 122.898438 283.25 122.992188 C 283.441406 123.117188 283.621094 123.246094 283.789062 123.394531 C 283.558594 123.390625 283.347656 123.355469 283.136719 123.324219 C 282.925781 123.316406 282.726562 123.28125 282.527344 123.277344 C 282.125 123.257812 281.746094 123.28125 281.378906 123.355469 C 281.011719 123.421875 280.664062 123.574219 280.320312 123.757812 C 279.976562 123.953125 279.652344 124.195312 279.3125 124.488281 " fill-opacity="1" fill-rule="nonzero"/><path fill="#2d1714" d="M 289.648438 121.964844 C 289.828125 121.074219 290.625 120.332031 291.566406 120.128906 C 292.039062 120.046875 292.523438 120.058594 292.960938 120.199219 C 293.183594 120.257812 293.386719 120.371094 293.585938 120.46875 C 293.777344 120.589844 293.960938 120.722656 294.125 120.871094 C 293.894531 120.863281 293.683594 120.824219 293.476562 120.800781 C 293.265625 120.792969 293.0625 120.753906 292.863281 120.753906 C 292.464844 120.730469 292.082031 120.757812 291.714844 120.832031 C 291.347656 120.898438 291 121.046875 290.65625 121.234375 C 290.3125 121.425781 289.988281 121.671875 289.648438 121.964844 " fill-opacity="1" fill-rule="nonzero"/><path fill="#2d1714" d="M 286.054688 115.035156 C 289.058594 116.027344 292.277344 115.589844 295.410156 115.796875 C 298.539062 116 302.019531 117.160156 303.441406 120.058594 C 302.480469 114.652344 300.660156 109.214844 297.117188 105.035156 C 293.574219 100.847656 288.058594 98.125 282.835938 99.089844 C 272.660156 100.976562 279.609375 112.902344 286.054688 115.035156 " fill-opacity="1" fill-rule="nonzero"/><path fill="#f3ac71" d="M 291.300781 146.472656 C 290.695312 146.605469 290.058594 146.585938 289.445312 146.71875 C 287.15625 147.222656 285.878906 149.625 285.003906 151.800781 C 284.28125 153.597656 283.621094 155.449219 283.496094 157.382812 C 283.367188 159.3125 283.828125 161.359375 285.121094 162.800781 C 287.449219 165.394531 291.578125 165.261719 294.902344 164.203125 C 299.324219 162.796875 303.40625 160.039062 305.890625 156.113281 C 307.167969 154.097656 307.980469 151.417969 306.761719 149.363281 C 306.117188 148.285156 305.089844 147.707031 304.082031 147.03125 C 302.984375 146.292969 302.667969 145.738281 301.894531 144.839844 C 300.410156 143.121094 298.488281 142.921875 296.21875 143.003906 C 295.328125 143.03125 294.308594 143.019531 293.679688 143.660156 C 292.792969 144.570312 293.226562 145.890625 291.570312 146.402344 C 291.480469 146.429688 291.390625 146.453125 291.300781 146.472656 " fill-opacity="1" fill-rule="nonzero"/><path fill="#2a509a" d="M 293.574219 227.097656 C 283.15625 227.097656 274.632812 218.570312 274.632812 208.148438 L 274.632812 201.78125 C 274.632812 201.113281 275.179688 200.570312 275.839844 200.570312 L 311.304688 200.570312 C 311.972656 200.570312 312.519531 201.113281 312.519531 201.78125 L 312.519531 208.148438 C 312.519531 218.570312 303.992188 227.097656 293.574219 227.097656 " fill-opacity="1" fill-rule="nonzero"/><path fill="#2a509a" d="M 281.277344 204.542969 C 281.277344 204.542969 286.617188 194.691406 248.054688 254.097656 L 259.859375 262.847656 L 293.851562 217.367188 L 281.277344 204.542969 " fill-opacity="1" fill-rule="nonzero"/><path fill="#f3ac71" d="M 306.246094 258.199219 L 305.09375 262.425781 L 294.886719 259.976562 L 297.019531 253.152344 L 306.246094 258.199219 " fill-opacity="1" fill-rule="nonzero"/><path fill="#e37748" d="M 308.382812 270.980469 C 308.351562 271.773438 308.234375 272.636719 308.664062 273.304688 C 309.167969 274.078125 310.28125 274.265625 311.152344 273.953125 C 312.023438 273.640625 312.691406 272.941406 313.28125 272.226562 C 314.996094 270.152344 316.355469 267.464844 315.777344 264.832031 C 315.527344 263.703125 314.933594 262.632812 314.960938 261.476562 C 314.976562 260.976562 315.109375 260.476562 315.046875 259.984375 C 314.941406 259.132812 314.277344 258.445312 313.527344 258.035156 C 311.589844 256.960938 309.21875 257.371094 307.003906 257.304688 C 306.261719 257.277344 305.371094 257.265625 304.957031 257.882812 C 304.765625 258.167969 304.734375 258.523438 304.703125 258.863281 C 304.609375 259.941406 304.359375 260.851562 304.902344 261.800781 C 305.46875 262.796875 306.128906 263.722656 306.667969 264.730469 C 307.652344 266.59375 308.5625 268.824219 308.382812 270.980469 " fill-opacity="1" fill-rule="nonzero"/><path fill="#35333f" d="M 312.601562 257.351562 C 311.964844 257.15625 311.328125 257.027344 310.660156 257.015625 C 310.097656 257.003906 309.410156 257.289062 308.882812 257.230469 C 309.109375 257.253906 309.296875 257.421875 309.464844 257.578125 C 310.429688 258.46875 311.730469 259.167969 312.304688 260.355469 C 312.867188 261.519531 313.277344 262.648438 313.191406 263.964844 C 313.152344 264.515625 313.035156 265.082031 312.71875 265.535156 C 312.074219 266.460938 310.808594 266.738281 309.980469 267.476562 C 308.90625 268.433594 308.109375 269.507812 308.109375 271.011719 C 308.109375 272.5 308.796875 273.910156 309.679688 275.105469 C 309.882812 275.378906 310.101562 275.648438 310.40625 275.789062 C 310.789062 275.964844 311.246094 275.90625 311.628906 275.730469 C 312.546875 275.3125 313.257812 274.238281 313.777344 273.40625 C 315.109375 271.28125 315.878906 268.824219 316.035156 266.328125 C 316.117188 265.066406 315.871094 263.859375 315.855469 262.617188 C 315.839844 261.535156 316.128906 260.375 315.53125 259.382812 C 314.882812 258.304688 313.761719 257.710938 312.601562 257.351562 " fill-opacity="1" fill-rule="nonzero"/><path fill="#f3ac71" d="M 345.492188 256.539062 L 345.632812 260.917969 L 335.15625 261.578125 L 335.191406 254.425781 L 345.492188 256.539062 " fill-opacity="1" fill-rule="nonzero"/><path fill="#f3ac71" d="M 351.292969 268.125 C 351.496094 268.894531 351.636719 269.757812 352.246094 270.265625 C 352.953125 270.855469 354.074219 270.707031 354.8125 270.152344 C 355.550781 269.597656 355.988281 268.730469 356.339844 267.878906 C 357.371094 265.390625 357.878906 262.421875 356.550781 260.074219 C 355.984375 259.070312 355.097656 258.222656 354.789062 257.105469 C 354.65625 256.625 354.632812 256.109375 354.429688 255.65625 C 354.078125 254.875 353.242188 254.414062 352.40625 254.238281 C 350.238281 253.78125 348.089844 254.875 345.953125 255.460938 C 345.238281 255.65625 344.382812 255.90625 344.171875 256.617188 C 344.074219 256.941406 344.140625 257.292969 344.214844 257.625 C 344.441406 258.683594 344.472656 259.628906 345.269531 260.378906 C 346.101562 261.15625 347.007812 261.851562 347.816406 262.660156 C 349.304688 264.148438 350.832031 266.015625 351.292969 268.125 " fill-opacity="1" fill-rule="nonzero"/><path fill="#35333f" d="M 351.320312 253.859375 C 350.65625 253.859375 350.007812 253.925781 349.367188 254.109375 C 348.824219 254.265625 348.25 254.738281 347.730469 254.835938 C 347.953125 254.796875 348.179688 254.898438 348.386719 254.996094 C 349.570312 255.566406 351.019531 255.851562 351.921875 256.820312 C 352.796875 257.761719 353.519531 258.722656 353.824219 260.003906 C 353.949219 260.546875 354.007812 261.121094 353.835938 261.648438 C 353.492188 262.71875 352.363281 263.355469 351.789062 264.304688 C 351.046875 265.539062 350.597656 266.796875 351.042969 268.238281 C 351.476562 269.660156 352.550781 270.804688 353.746094 271.6875 C 354.015625 271.886719 354.308594 272.082031 354.640625 272.125 C 355.054688 272.183594 355.476562 271.992188 355.792969 271.710938 C 356.542969 271.042969 356.910156 269.804688 357.164062 268.859375 C 357.808594 266.441406 357.824219 263.863281 357.242188 261.429688 C 356.945312 260.199219 356.355469 259.117188 355.976562 257.933594 C 355.644531 256.90625 355.578125 255.714844 354.71875 254.9375 C 353.78125 254.09375 352.535156 253.859375 351.320312 253.859375 " fill-opacity="1" fill-rule="nonzero"/><path fill="#2a509a" d="M 299.039062 280.261719 L 343.65625 263.023438 L 340.3125 252.164062 L 293.410156 266.617188 L 299.039062 280.261719 " fill-opacity="1" fill-rule="nonzero"/><path fill="#f68a12" d="M 306.144531 204.484375 C 307.253906 207.125 308.445312 209.773438 308.648438 209.699219 C 298.046875 213.738281 285.886719 213.507812 275.449219 209.0625 C 276.871094 203.621094 279.527344 197.496094 280.097656 191.988281 C 280.535156 187.761719 280.730469 183.507812 280.710938 179.261719 C 280.683594 173.292969 280.242188 167.15625 281.328125 161.242188 C 281.714844 159.144531 282.316406 157.074219 283.210938 155.136719 C 283.542969 154.402344 285.15625 150.964844 286.007812 150.828125 C 286.371094 150.773438 286.714844 151.0625 286.871094 151.398438 C 287.027344 151.734375 287.054688 152.113281 287.152344 152.46875 C 287.480469 153.710938 288.585938 154.605469 289.757812 155.128906 C 292.335938 156.277344 295.390625 155.988281 297.976562 154.855469 C 300.613281 153.695312 302.546875 151.742188 304.640625 149.863281 C 305.140625 151.269531 303.289062 154.582031 302.910156 156.035156 C 302.164062 158.859375 301.460938 161.695312 301.054688 164.585938 C 300.558594 168.132812 301.230469 171.859375 301.457031 175.449219 C 301.738281 179.9375 302.226562 184.402344 302.773438 188.863281 C 303.191406 192.320312 303.296875 196.085938 304.148438 199.421875 C 304.261719 199.855469 305.167969 202.164062 306.144531 204.484375 " fill-opacity="1" fill-rule="nonzero"/><path fill="#f68a12" d="M 282.988281 166.949219 C 282.164062 170.835938 281.90625 174.824219 281.675781 178.796875 C 281.25 186.082031 280.351562 193.644531 280.652344 200.933594 C 280.710938 202.390625 281.941406 205.582031 280.308594 206.390625 C 277.617188 207.726562 276.421875 203.183594 276.371094 201.558594 C 276.21875 196.550781 279.027344 192.167969 279.144531 187.398438 C 279.246094 183.4375 277.945312 178.835938 277.527344 174.84375 C 274.945312 173.339844 274.011719 169.785156 274.648438 166.785156 C 275.28125 163.792969 277.152344 161.25 279.101562 158.945312 C 281.835938 155.710938 284.75 152.390625 285.625 148.042969 C 285.664062 147.847656 285.71875 147.625 285.890625 147.53125 C 285.957031 147.492188 286.035156 147.484375 286.113281 147.472656 C 287.441406 147.316406 288.746094 146.960938 289.984375 146.425781 C 289.800781 148.53125 288.996094 150.515625 288.203125 152.464844 C 286.261719 157.246094 284.070312 161.839844 282.988281 166.949219 " fill-opacity="1" fill-rule="nonzero"/><path fill="#f68a12" d="M 312.808594 198.023438 C 312.515625 196.910156 312.160156 195.824219 311.714844 194.761719 C 309.964844 190.570312 309.824219 186.4375 307.453125 182.558594 C 306.875 181.613281 306.324219 180.617188 306.109375 179.527344 C 305.894531 178.414062 306.039062 177.261719 306.246094 176.144531 C 307.09375 171.570312 309.144531 167.902344 311.230469 163.851562 C 313.523438 159.390625 315.941406 155.253906 313.789062 150.210938 C 313.425781 149.363281 312.949219 148.542969 312.257812 147.929688 C 310.507812 146.371094 308.015625 146.5 305.925781 145.746094 C 303.394531 144.835938 303.945312 144.738281 302.960938 147.074219 C 301.945312 149.480469 300.015625 151.636719 298.773438 153.96875 C 297.542969 156.269531 296.484375 158.664062 295.605469 161.121094 C 294.59375 163.957031 293.730469 167.050781 294.023438 170.074219 C 294.335938 173.285156 294.84375 176.476562 295.359375 179.660156 C 297.453125 192.570312 299.652344 209.726562 298.640625 222.84375 C 304.703125 222.835938 301.039062 222.304688 307.003906 221.238281 C 306.878906 217.367188 307.644531 209.523438 307.367188 205.644531 C 307.171875 202.839844 313.519531 200.730469 312.808594 198.023438 " fill-opacity="1" fill-rule="nonzero"/><path fill="#2d1714" d="M 276.074219 120.585938 C 276.074219 120.585938 278.824219 140.253906 282.890625 143.929688 C 282.890625 143.929688 277.933594 125.914062 277.339844 121.953125 L 276.074219 120.585938 " fill-opacity="1" fill-rule="nonzero"/><path fill="#2d1714" d="M 300.808594 115.039062 C 300.808594 115.039062 307.429688 133.765625 305.511719 138.898438 C 305.511719 138.898438 301.613281 120.628906 300.3125 116.839844 L 300.808594 115.039062 " fill-opacity="1" fill-rule="nonzero"/><path fill="#f05b1a" d="M 274.429688 115.65625 C 274.429688 115.65625 269.953125 100.546875 284.09375 95.90625 C 298.234375 91.261719 307.128906 99.105469 307.074219 109.132812 L 303.269531 110.796875 C 296.359375 113.824219 288.914062 115.441406 281.371094 115.554688 L 274.429688 115.65625 " fill-opacity="1" fill-rule="nonzero"/><path fill="#d3501f" d="M 296.882812 112.148438 C 296.882812 112.148438 281.191406 105.308594 272.054688 113.210938 C 262.921875 121.105469 267.40625 123.300781 270.269531 122.074219 C 273.132812 120.851562 280.589844 117.972656 282.417969 118.976562 C 284.242188 119.980469 292.371094 120.101562 296.882812 112.148438 " fill-opacity="1" fill-rule="nonzero"/><path fill="#2a509a" d="M 280.089844 166.378906 L 299.664062 166.140625 C 299.664062 166.140625 299.179688 198.777344 310.054688 194.90625 L 312.472656 192.246094 L 312.230469 222.226562 L 292.414062 223.4375 L 274.289062 223.679688 L 274.632812 201.585938 C 274.632812 201.585938 281.300781 187.171875 279.125 180.160156 C 276.949219 173.148438 280.089844 166.378906 280.089844 166.378906 " fill-opacity="1" fill-rule="nonzero"/><path fill="#e37748" d="M 320.949219 233.597656 C 320.542969 234.414062 320.039062 235.175781 319.535156 235.929688 C 319.101562 236.585938 318.65625 237.246094 318.09375 237.796875 L 317.878906 238 C 317.289062 238.542969 318.058594 239.460938 318.675781 238.953125 C 319.355469 238.402344 319.960938 237.734375 320.539062 237.105469 C 321.410156 236.160156 322.273438 235.203125 323.109375 234.21875 C 323.234375 234.074219 323.355469 233.917969 323.417969 233.730469 C 323.5 233.484375 323.464844 233.214844 323.4375 232.953125 C 323.230469 231.199219 323.226562 229.421875 323.425781 227.667969 C 321.871094 229.347656 321.925781 231.601562 320.949219 233.597656 " fill-opacity="1" fill-rule="nonzero"/><path fill="#e37748" d="M 320.472656 231.515625 C 320.171875 232.371094 319.753906 233.183594 319.335938 233.996094 C 318.976562 234.695312 318.617188 235.398438 318.117188 236.007812 C 318.054688 236.085938 317.992188 236.164062 317.925781 236.238281 C 317.40625 236.84375 318.273438 237.667969 318.832031 237.09375 C 319.4375 236.46875 319.964844 235.734375 320.464844 235.046875 C 321.226562 234.003906 321.972656 232.957031 322.691406 231.886719 C 322.800781 231.722656 322.902344 231.554688 322.941406 231.363281 C 322.996094 231.109375 322.933594 230.84375 322.875 230.589844 C 322.46875 228.867188 322.265625 227.105469 322.261719 225.335938 C 320.910156 227.1875 321.222656 229.417969 320.472656 231.515625 " fill-opacity="1" fill-rule="nonzero"/><path fill="#f3ac71" d="M 316.542969 224.984375 C 316.71875 225.558594 316.925781 226.128906 317.003906 226.722656 C 317.269531 228.796875 315.894531 230.992188 316.632812 232.972656 C 316.773438 233.355469 317.070312 233.761719 317.554688 233.789062 C 318.191406 233.828125 318.613281 233.230469 318.832031 232.726562 C 319.496094 231.207031 319.949219 229.628906 320.171875 228.035156 C 320.242188 227.515625 320.292969 226.980469 320.574219 226.507812 C 320.777344 226.15625 321.089844 225.863281 321.363281 225.550781 C 323.324219 223.339844 323.523438 218.164062 319.761719 217.1875 C 315.226562 216.011719 315.984375 223.15625 316.542969 224.984375 " fill-opacity="1" fill-rule="nonzero"/><path fill="#f3ac71" d="M 321.28125 228.007812 C 321.40625 228.296875 321.4375 228.613281 321.460938 228.925781 C 321.589844 230.542969 321.722656 232.160156 321.851562 233.773438 C 321.871094 234.03125 321.890625 234.292969 321.824219 234.542969 C 321.722656 234.910156 321.441406 235.199219 321.1875 235.480469 C 320.074219 236.710938 319.21875 238.171875 318.683594 239.738281 C 318.496094 240.292969 319.203125 240.71875 319.609375 240.300781 C 319.785156 240.113281 319.957031 239.914062 320.117188 239.722656 C 321.242188 238.40625 322.363281 237.085938 323.480469 235.769531 C 323.757812 235.441406 324.035156 235.113281 324.210938 234.730469 C 324.484375 234.117188 324.46875 233.417969 324.476562 232.75 C 324.503906 231.058594 324.726562 229.375 325.132812 227.738281 C 325.226562 227.363281 325.328125 226.980469 325.339844 226.59375 C 325.355469 226.070312 325.203125 225.558594 325.058594 225.050781 C 324.261719 222.1875 323.855469 219.230469 323.425781 216.289062 C 319.90625 216.613281 321.386719 216.476562 317.867188 216.800781 C 317.980469 219.015625 318.335938 221.214844 318.921875 223.347656 C 319.164062 224.242188 319.390625 225.21875 319.828125 226.039062 C 320.214844 226.761719 320.960938 227.265625 321.28125 228.007812 " fill-opacity="1" fill-rule="nonzero"/><path fill="#f05b1a" d="M 321.972656 189.785156 C 322.328125 192.382812 320.011719 194.839844 316.796875 195.285156 C 313.585938 195.722656 310.691406 193.980469 310.335938 191.386719 C 309.980469 188.792969 312.296875 186.328125 315.507812 185.886719 C 318.722656 185.445312 321.613281 187.191406 321.972656 189.785156 " fill-opacity="1" fill-rule="nonzero"/><path fill="#f05b1a" d="M 316.683594 151.09375 C 317.042969 153.691406 314.726562 156.148438 311.511719 156.589844 C 308.296875 157.03125 305.40625 155.289062 305.046875 152.691406 C 304.691406 150.097656 307.007812 147.636719 310.222656 147.199219 C 313.433594 146.753906 316.328125 148.5 316.683594 151.09375 " fill-opacity="1" fill-rule="nonzero"/><path fill="#f05b1a" d="M 316.683594 151.09375 L 305.046875 152.691406 L 310.390625 191.625 L 322.027344 190.027344 L 316.683594 151.09375 " fill-opacity="1" fill-rule="nonzero"/><path fill="#f05b1a" d="M 326.578125 218.5625 L 321.722656 190.667969 L 310.835938 192.675781 C 310.835938 192.675781 315.523438 215.425781 314.449219 220.417969 L 326.578125 218.5625 " fill-opacity="1" fill-rule="nonzero"/><path fill="#2a509a" d="M 306.910156 145.347656 L 295.074219 166.625 L 299.179688 167.832031 L 311.019531 146.554688 L 306.910156 145.347656 " fill-opacity="1" fill-rule="nonzero"/><path fill="#2a509a" d="M 289.445312 146.71875 L 282.265625 168.796875 L 279.847656 167.832031 L 285.890625 147.53125 C 285.890625 147.53125 286.480469 145.433594 289.445312 146.71875 " fill-opacity="1" fill-rule="nonzero"/><path fill="#a5a5a4" d="M 282.886719 167.964844 L 280.476562 167.964844 L 280.476562 164.855469 L 282.886719 164.855469 Z M 279.324219 163.371094 L 279.324219 169.453125 L 284.039062 169.453125 L 284.039062 163.371094 L 279.324219 163.371094 " fill-opacity="1" fill-rule="nonzero"/><path fill="#a5a5a4" d="M 299.078125 167.722656 L 296.667969 167.722656 L 296.667969 164.613281 L 299.078125 164.613281 Z M 295.515625 163.125 L 295.515625 169.207031 L 300.230469 169.207031 L 300.230469 163.125 L 295.515625 163.125 " fill-opacity="1" fill-rule="nonzero"/><path fill="#2a509a" d="M 263.136719 259.214844 C 263.136719 263.914062 259.328125 267.722656 254.632812 267.722656 C 249.9375 267.722656 246.132812 263.914062 246.132812 259.214844 C 246.132812 254.519531 249.9375 250.710938 254.632812 250.710938 C 259.328125 250.710938 263.136719 254.519531 263.136719 259.214844 " fill-opacity="1" fill-rule="nonzero"/><path fill="#2a509a" d="M 295.15625 214.390625 C 295.15625 214.390625 295.332031 203.1875 288.605469 273.703125 L 303.113281 275.996094 L 312.230469 219.945312 L 295.15625 214.390625 " fill-opacity="1" fill-rule="nonzero"/><path fill="#2a509a" d="M 304.613281 268.242188 C 306.789062 272.40625 305.175781 277.546875 301.011719 279.71875 C 296.847656 281.890625 291.714844 280.277344 289.539062 276.109375 C 287.371094 271.945312 288.984375 266.808594 293.148438 264.632812 C 297.308594 262.464844 302.445312 264.078125 304.613281 268.242188 " fill-opacity="1" fill-rule="nonzero"/><path fill="#e37748" d="M 269.164062 149.28125 C 268.117188 150.125 267.132812 151.050781 266.230469 152.046875 C 265.976562 152.324219 265.664062 152.628906 265.292969 152.582031 C 265.003906 152.542969 264.78125 152.277344 264.722656 151.992188 C 264.660156 151.703125 264.734375 151.40625 264.851562 151.140625 C 265.109375 150.550781 265.5625 150.066406 266.0625 149.65625 C 266.757812 149.09375 267.570312 148.664062 268.207031 148.035156 C 268.558594 147.6875 268.859375 147.277344 269.289062 147.039062 C 269.847656 146.726562 270.570312 146.828125 270.605469 147.546875 C 270.644531 148.25 269.628906 148.902344 269.164062 149.28125 " fill-opacity="1" fill-rule="nonzero"/><path fill="#737171" d="M 270.003906 161.066406 C 270.253906 160.667969 270.140625 160.152344 269.742188 159.902344 C 269.359375 159.65625 268.820312 159.777344 268.578125 160.164062 C 268.332031 160.546875 268.453125 161.089844 268.835938 161.332031 C 269.226562 161.578125 269.75 161.460938 270.003906 161.066406 Z M 258.847656 127.980469 C 259.011719 127.824219 259.167969 127.671875 259.363281 127.488281 C 259.398438 127.597656 259.429688 127.6875 259.449219 127.78125 C 259.6875 128.8125 259.921875 129.839844 260.152344 130.871094 C 260.1875 131.042969 260.257812 131.132812 260.433594 131.179688 C 261.152344 131.394531 261.859375 131.628906 262.578125 131.839844 C 262.683594 131.871094 262.847656 131.835938 262.925781 131.765625 C 263.46875 131.28125 263.992188 130.773438 264.539062 130.292969 C 264.714844 130.132812 264.746094 129.984375 264.691406 129.753906 C 264.453125 128.769531 264.238281 127.773438 264.011719 126.785156 C 263.992188 126.6875 263.972656 126.585938 263.949219 126.449219 C 264.195312 126.53125 264.417969 126.597656 264.636719 126.671875 C 264.929688 126.855469 265.226562 127.042969 265.523438 127.230469 C 265.59375 127.316406 265.660156 127.40625 265.738281 127.484375 C 267.71875 129.359375 267.742188 132.429688 265.769531 134.289062 C 265.585938 134.464844 265.554688 134.613281 265.609375 134.847656 C 266.675781 139.53125 270.03125 154.394531 271.097656 159.070312 C 271.253906 159.757812 271.40625 160.433594 271.175781 161.128906 C 271.042969 161.339844 270.914062 161.546875 270.78125 161.753906 C 270.265625 162.207031 269.691406 162.53125 268.976562 162.472656 C 268.726562 162.453125 268.476562 162.378906 268.226562 162.335938 C 268.019531 162.199219 267.808594 162.070312 267.601562 161.9375 C 267.230469 161.5 266.992188 161.011719 266.867188 160.445312 C 265.78125 155.589844 262.375 140.5625 261.289062 135.710938 C 261.230469 135.457031 261.113281 135.339844 260.878906 135.257812 C 258.703125 134.46875 257.4375 132.082031 258 129.832031 C 258.078125 129.507812 258.191406 129.191406 258.289062 128.867188 C 258.476562 128.570312 258.664062 128.273438 258.847656 127.980469 " fill-opacity="1" fill-rule="nonzero"/><path fill="#f3ac71" d="M 256.972656 147.078125 C 256.933594 146.441406 256.902344 145.78125 257.144531 145.195312 C 257.597656 144.117188 258.816406 143.632812 259.898438 143.179688 C 261.578125 142.480469 263.183594 141.613281 264.691406 140.585938 C 265.199219 140.246094 265.730469 139.867188 266.34375 139.84375 C 266.957031 139.816406 267.628906 140.324219 267.523438 140.929688 C 267.46875 141.234375 267.226562 141.539062 267.351562 141.824219 C 267.582031 142.359375 268.484375 141.847656 268.976562 142.164062 C 269.355469 142.398438 269.285156 142.972656 269.125 143.394531 C 268.964844 143.808594 268.761719 144.304688 269.011719 144.679688 C 269.28125 145.082031 270.023438 145.355469 269.78125 145.777344 C 269.71875 145.886719 269.59375 145.957031 269.558594 146.074219 C 269.5 146.285156 269.734375 146.445312 269.890625 146.597656 C 270.472656 147.167969 270.046875 148.222656 269.347656 148.640625 C 268.652344 149.058594 267.796875 149.09375 267.027344 149.351562 C 265.199219 149.960938 264.492188 151.832031 262.257812 151.710938 C 262.789062 152.421875 262.273438 153.207031 262.605469 154.03125 C 262.199219 154.457031 262.53125 154.585938 261.953125 154.691406 C 260.78125 154.910156 259.613281 155.128906 258.445312 155.347656 C 258.332031 155.367188 258.214844 155.390625 258.109375 155.351562 C 257.988281 155.3125 257.902344 155.203125 257.828125 155.097656 C 257.125 154.0625 257.304688 152.636719 257.234375 151.4375 C 257.144531 149.984375 257.0625 148.527344 256.972656 147.078125 " fill-opacity="1" fill-rule="nonzero"/><path fill="#f05b1a" d="M 364.046875 242.953125 L 315.335938 242.953125 L 315.335938 238.890625 L 364.046875 238.890625 L 364.046875 242.953125 " fill-opacity="1" fill-rule="nonzero"/><path fill="#8d361c" d="M 313.308594 237.042969 L 311.648438 259.011719 L 316.8125 258.824219 L 317.183594 237.042969 L 313.308594 237.042969 " fill-opacity="1" fill-rule="nonzero"/><path fill="#8d361c" d="M 365.890625 237.042969 L 367.550781 259.011719 L 362.386719 258.824219 L 362.019531 237.042969 L 365.890625 237.042969 " fill-opacity="1" fill-rule="nonzero"/><path fill="#737171" d="M 318.113281 271.101562 C 318.515625 270.84375 318.640625 270.277344 318.382812 269.871094 C 318.132812 269.464844 317.566406 269.339844 317.160156 269.597656 C 316.746094 269.859375 316.625 270.402344 316.886719 270.816406 C 317.152344 271.230469 317.703125 271.359375 318.113281 271.101562 Z M 329.207031 236.957031 C 329.3125 237.296875 329.429688 237.628906 329.511719 237.972656 C 330.101562 240.339844 328.773438 242.847656 326.484375 243.675781 C 326.238281 243.765625 326.113281 243.890625 326.054688 244.15625 C 324.910156 249.257812 321.328125 265.0625 320.1875 270.167969 C 320.054688 270.761719 319.804688 271.28125 319.414062 271.738281 C 319.195312 271.875 318.972656 272.015625 318.753906 272.152344 C 318.492188 272.203125 318.230469 272.277344 317.964844 272.296875 C 317.214844 272.359375 316.613281 272.023438 316.070312 271.542969 C 315.933594 271.324219 315.792969 271.105469 315.65625 270.886719 C 315.414062 270.152344 315.570312 269.445312 315.734375 268.722656 C 316.859375 263.800781 320.386719 248.167969 321.507812 243.246094 C 321.566406 243 321.535156 242.84375 321.339844 242.660156 C 319.265625 240.699219 319.289062 237.472656 321.375 235.5 C 321.457031 235.421875 321.527344 235.324219 321.601562 235.234375 C 321.910156 235.039062 322.222656 234.84375 322.535156 234.644531 C 322.761719 234.570312 322.996094 234.496094 323.253906 234.414062 C 323.226562 234.558594 323.210938 234.660156 323.1875 234.765625 C 322.953125 235.808594 322.722656 236.851562 322.472656 237.890625 C 322.417969 238.128906 322.449219 238.289062 322.636719 238.453125 C 323.210938 238.964844 323.757812 239.496094 324.332031 240.007812 C 324.414062 240.078125 324.589844 240.113281 324.695312 240.085938 C 325.449219 239.863281 326.199219 239.617188 326.953125 239.390625 C 327.136719 239.339844 327.210938 239.246094 327.25 239.070312 C 327.488281 237.980469 327.742188 236.898438 327.988281 235.8125 C 328.007812 235.714844 328.042969 235.621094 328.074219 235.503906 C 328.28125 235.699219 328.449219 235.863281 328.617188 236.023438 C 328.816406 236.335938 329.011719 236.648438 329.207031 236.957031 " fill-opacity="1" fill-rule="nonzero"/><path fill="#737171" d="M 351.191406 266.859375 C 351.367188 266.316406 351.054688 265.699219 350.507812 265.523438 C 349.960938 265.34375 349.347656 265.65625 349.167969 266.203125 C 348.988281 266.761719 349.292969 267.355469 349.851562 267.535156 C 350.40625 267.714844 351.007812 267.414062 351.191406 266.859375 Z M 335.398438 226.945312 C 335.753906 227.175781 336.117188 227.394531 336.457031 227.644531 C 338.796875 229.378906 339.484375 232.703125 338.011719 235.207031 C 337.851562 235.480469 337.832031 235.691406 337.980469 235.980469 C 340.8125 241.550781 349.550781 258.847656 352.390625 264.417969 C 352.722656 265.070312 352.886719 265.738281 352.875 266.457031 C 352.777344 266.75 352.683594 267.046875 352.585938 267.339844 C 352.382812 267.589844 352.195312 267.855469 351.96875 268.078125 C 351.324219 268.707031 350.511719 268.855469 349.648438 268.828125 C 349.355469 268.730469 349.0625 268.636719 348.765625 268.539062 C 347.988281 268.046875 347.585938 267.277344 347.191406 266.484375 C 344.472656 261.09375 335.816406 244.003906 333.097656 238.613281 C 332.960938 238.34375 332.816406 238.21875 332.496094 238.199219 C 329.09375 237.976562 326.652344 234.984375 327.070312 231.578125 C 327.089844 231.441406 327.078125 231.300781 327.082031 231.160156 C 327.214844 230.742188 327.351562 230.324219 327.488281 229.902344 C 327.644531 229.660156 327.800781 229.414062 327.976562 229.140625 C 328.058594 229.292969 328.125 229.402344 328.179688 229.515625 C 328.757812 230.65625 329.34375 231.792969 329.90625 232.941406 C 330.039062 233.199219 330.183594 233.324219 330.484375 233.335938 C 331.398438 233.367188 332.3125 233.4375 333.226562 233.472656 C 333.363281 233.476562 333.546875 233.375 333.621094 233.265625 C 334.152344 232.488281 334.648438 231.6875 335.175781 230.90625 C 335.304688 230.714844 335.300781 230.574219 335.203125 230.382812 C 334.59375 229.199219 334 228.007812 333.402344 226.820312 C 333.347656 226.71875 333.308594 226.605469 333.25 226.46875 C 333.585938 226.492188 333.867188 226.511719 334.144531 226.53125 C 334.5625 226.667969 334.980469 226.808594 335.398438 226.945312 " fill-opacity="1" fill-rule="nonzero"/><path fill="#946c3a" d="M 357.28125 240.320312 C 358.964844 241.609375 360.636719 242.882812 362.351562 244.191406 L 362.253906 244.363281 C 357.066406 250.425781 352.261719 256.785156 347.734375 263.347656 C 345.023438 267.277344 342.421875 271.28125 339.78125 275.257812 C 339.125 276.238281 338.4375 276.40625 337.53125 275.734375 C 336.261719 274.796875 335.003906 273.84375 333.757812 272.878906 C 332.878906 272.199219 332.851562 271.449219 333.613281 270.582031 C 341.679688 261.4375 349.339844 251.964844 356.222656 241.875 C 356.570312 241.363281 356.910156 240.847656 357.253906 240.339844 L 357.28125 240.320312 " fill-opacity="1" fill-rule="nonzero"/><path fill="#707273" d="M 348.421875 235.261719 C 348.75 234.933594 349.042969 234.542969 349.421875 234.296875 C 350.9375 233.324219 352.621094 232.75 354.355469 232.304688 C 356.472656 231.761719 358.621094 231.5 360.804688 231.867188 C 362.097656 232.082031 363.28125 232.546875 364.332031 233.355469 C 365.558594 234.3125 366.828125 235.21875 368.042969 236.191406 C 368.355469 236.441406 368.574219 236.847656 368.75 237.21875 C 368.933594 237.601562 369.003906 238.039062 369.148438 238.441406 C 369.546875 239.539062 370.363281 240.253906 371.464844 240.417969 C 372.375 240.554688 373.050781 240.96875 373.738281 241.492188 C 374.960938 242.425781 375.03125 242.453125 374.183594 243.757812 C 373.589844 244.671875 372.796875 245.464844 372.074219 246.289062 C 371.792969 246.601562 371.460938 246.640625 371.113281 246.3125 C 370.847656 246.0625 370.535156 245.855469 370.234375 245.644531 C 369.644531 245.230469 369.207031 244.746094 368.890625 244.042969 C 367.832031 241.675781 364.78125 241.367188 363.203125 243.402344 C 362 244.945312 362.425781 244.945312 360.789062 243.71875 C 359.6875 242.898438 358.59375 242.070312 357.503906 241.238281 C 356.867188 240.75 356.863281 240.691406 357.328125 240.066406 C 357.667969 239.609375 358.03125 239.160156 358.34375 238.679688 C 358.570312 238.34375 358.773438 237.980469 358.917969 237.601562 C 359.339844 236.496094 359.074219 235.855469 358.007812 235.363281 C 356.957031 234.875 355.828125 234.726562 354.703125 234.824219 C 352.972656 234.972656 351.253906 235.246094 349.527344 235.460938 C 349.214844 235.5 348.898438 235.507812 348.582031 235.53125 C 348.527344 235.441406 348.472656 235.351562 348.421875 235.261719 " fill-opacity="1" fill-rule="nonzero"/><path fill="#ccccc9" d="M 334.777344 227.8125 C 335.289062 227.8125 335.796875 227.816406 336.308594 227.816406 C 336.359375 228.222656 336.40625 228.632812 336.457031 229.042969 C 336.523438 229.636719 336.601562 230.230469 336.652344 230.820312 C 336.671875 231.011719 336.625 231.210938 336.578125 231.402344 C 336.484375 231.8125 336.359375 232.21875 336.277344 232.632812 C 336.234375 232.839844 336.253906 233.058594 336.253906 233.269531 C 336.253906 235.167969 336.257812 237.074219 336.257812 238.972656 C 336.257812 239.972656 336.246094 240.96875 336.246094 241.964844 C 336.25 243.792969 336.253906 245.625 336.253906 247.460938 C 336.257812 248.226562 336.257812 248.996094 336.257812 249.765625 C 335.777344 249.761719 335.3125 249.757812 334.800781 249.75 C 334.804688 249.421875 334.824219 249.066406 334.824219 248.714844 C 334.828125 247.621094 334.824219 246.53125 334.824219 245.4375 C 334.828125 244.15625 334.832031 242.875 334.835938 241.597656 C 334.835938 241.039062 334.828125 240.476562 334.828125 239.914062 C 334.824219 238.839844 334.824219 237.769531 334.824219 236.695312 C 334.824219 235.386719 334.835938 234.078125 334.820312 232.765625 C 334.816406 232.503906 334.710938 232.242188 334.648438 231.988281 C 334.574219 231.675781 334.488281 231.371094 334.421875 231.058594 C 334.402344 230.964844 334.417969 230.859375 334.433594 230.761719 C 334.539062 229.804688 334.652344 228.851562 334.765625 227.898438 L 334.777344 227.8125 " fill-opacity="1" fill-rule="nonzero"/><path fill="#f03a38" d="M 337.355469 250.1875 C 336.910156 250.183594 336.476562 250.179688 336.019531 250.175781 C 336.023438 250.421875 336.027344 250.679688 336.03125 250.933594 C 336.035156 251.265625 336.320312 251.566406 336.648438 251.585938 C 337.003906 251.609375 337.335938 251.355469 337.359375 251.011719 C 337.378906 250.726562 337.355469 250.4375 337.355469 250.1875 Z M 333.71875 250.136719 L 333.714844 250.238281 C 333.714844 250.46875 333.707031 250.703125 333.714844 250.9375 C 333.730469 251.300781 333.976562 251.554688 334.328125 251.582031 C 334.664062 251.613281 334.984375 251.398438 335.027344 251.050781 C 335.0625 250.753906 335.015625 250.445312 335.003906 250.140625 C 334.597656 250.140625 334.167969 250.140625 333.71875 250.136719 Z M 334.863281 254.132812 C 334.765625 254.085938 334.675781 254.015625 334.574219 253.988281 C 334.117188 253.84375 333.707031 254.179688 333.710938 254.683594 C 333.710938 255.011719 333.714844 255.339844 333.714844 255.667969 C 333.714844 257.082031 333.710938 258.5 333.710938 259.910156 C 333.707031 261.078125 333.710938 262.25 333.710938 263.414062 C 333.710938 264.101562 333.703125 264.792969 333.714844 265.484375 C 333.722656 265.890625 334.03125 266.167969 334.417969 266.152344 C 334.785156 266.132812 335.054688 265.824219 335.050781 265.433594 C 335.046875 264.753906 335.046875 264.074219 335.050781 263.394531 C 335.050781 262.441406 335.054688 261.488281 335.054688 260.53125 C 335.054688 259.578125 335.046875 258.617188 335.046875 257.65625 C 335.050781 256.648438 335.054688 255.640625 335.054688 254.636719 C 335.054688 254.445312 334.980469 254.289062 334.863281 254.132812 Z M 337.191406 254.167969 C 336.980469 253.957031 336.691406 253.894531 336.445312 254.007812 C 336.191406 254.128906 336.035156 254.320312 336.035156 254.613281 C 336.03125 255.539062 336.035156 256.46875 336.035156 257.394531 C 336.03125 258.632812 336.027344 259.867188 336.027344 261.105469 C 336.027344 262.5625 336.027344 264.015625 336.027344 265.46875 C 336.027344 265.972656 336.558594 266.304688 337 266.078125 C 337.300781 265.921875 337.378906 265.660156 337.375 265.34375 C 337.371094 264.550781 337.371094 263.761719 337.371094 262.972656 C 337.371094 262.015625 337.371094 261.058594 337.371094 260.097656 C 337.371094 259.125 337.371094 258.152344 337.371094 257.175781 C 337.371094 256.335938 337.371094 255.488281 337.371094 254.644531 C 337.371094 254.457031 337.320312 254.28125 337.191406 254.167969 Z M 332.816406 249.535156 C 334.636719 249.539062 336.4375 249.539062 338.273438 249.542969 C 338.269531 249.859375 338.261719 250.191406 338.257812 250.523438 C 338.253906 250.824219 338.253906 251.128906 338.261719 251.433594 C 338.261719 251.519531 338.230469 251.570312 338.148438 251.617188 C 337.25 252.15625 337.246094 253.449219 338.148438 253.992188 C 338.238281 254.046875 338.261719 254.105469 338.261719 254.207031 C 338.257812 255.8125 338.257812 257.414062 338.257812 259.019531 C 338.257812 260.542969 338.253906 262.070312 338.253906 263.59375 C 338.253906 264.234375 338.257812 264.875 338.253906 265.515625 C 338.253906 266.738281 337.277344 267.714844 336.058594 267.714844 C 335.585938 267.714844 335.113281 267.734375 334.648438 267.675781 C 333.636719 267.546875 332.828125 266.589844 332.824219 265.570312 C 332.824219 263.269531 332.828125 260.96875 332.828125 258.671875 C 332.828125 257.171875 332.824219 255.671875 332.828125 254.171875 L 332.917969 254.011719 C 333.84375 253.429688 333.84375 252.179688 332.917969 251.601562 L 332.828125 251.46875 C 332.820312 250.824219 332.820312 250.179688 332.816406 249.535156 " fill-opacity="1" fill-rule="nonzero"/><path fill="#e02d25" d="M 337.191406 254.167969 C 337.320312 254.28125 337.371094 254.457031 337.371094 254.644531 C 337.371094 255.488281 337.371094 256.335938 337.371094 257.175781 C 337.371094 258.152344 337.371094 259.125 337.371094 260.097656 C 337.371094 261.058594 337.371094 262.015625 337.371094 262.972656 C 337.371094 263.761719 337.371094 264.550781 337.375 265.34375 C 337.378906 265.660156 337.300781 265.921875 337 266.078125 C 336.558594 266.304688 336.027344 265.972656 336.027344 265.46875 C 336.027344 264.015625 336.027344 262.5625 336.027344 261.105469 C 336.027344 259.867188 336.03125 258.632812 336.035156 257.394531 C 336.035156 256.46875 336.03125 255.539062 336.035156 254.613281 C 336.035156 254.320312 336.191406 254.128906 336.445312 254.007812 C 336.691406 253.894531 336.980469 253.957031 337.191406 254.167969 " fill-opacity="1" fill-rule="nonzero"/><path fill="#e02d25" d="M 334.863281 254.132812 C 334.980469 254.289062 335.054688 254.445312 335.054688 254.636719 C 335.054688 255.640625 335.050781 256.648438 335.046875 257.65625 C 335.046875 258.617188 335.054688 259.578125 335.054688 260.53125 C 335.054688 261.488281 335.050781 262.441406 335.050781 263.394531 C 335.046875 264.074219 335.046875 264.753906 335.050781 265.433594 C 335.054688 265.824219 334.785156 266.132812 334.417969 266.152344 C 334.03125 266.167969 333.722656 265.890625 333.714844 265.484375 C 333.703125 264.792969 333.710938 264.101562 333.710938 263.414062 C 333.710938 262.25 333.707031 261.078125 333.710938 259.910156 C 333.710938 258.5 333.714844 257.082031 333.714844 255.667969 C 333.714844 255.339844 333.710938 255.011719 333.710938 254.683594 C 333.707031 254.179688 334.117188 253.84375 334.574219 253.988281 C 334.675781 254.015625 334.765625 254.085938 334.863281 254.132812 " fill-opacity="1" fill-rule="nonzero"/><path fill="#e02d25" d="M 333.71875 250.136719 C 334.167969 250.140625 334.597656 250.140625 335.003906 250.140625 C 335.015625 250.445312 335.0625 250.753906 335.027344 251.050781 C 334.984375 251.398438 334.664062 251.613281 334.328125 251.582031 C 333.976562 251.554688 333.730469 251.300781 333.714844 250.9375 C 333.707031 250.703125 333.714844 250.46875 333.714844 250.238281 L 333.71875 250.136719 " fill-opacity="1" fill-rule="nonzero"/><path fill="#e02d25" d="M 337.355469 250.1875 C 337.355469 250.4375 337.378906 250.726562 337.359375 251.011719 C 337.335938 251.355469 337.003906 251.609375 336.648438 251.585938 C 336.320312 251.566406 336.035156 251.265625 336.03125 250.933594 C 336.027344 250.679688 336.023438 250.421875 336.019531 250.175781 C 336.476562 250.179688 336.910156 250.183594 337.355469 250.1875 " fill-opacity="1" fill-rule="nonzero"/><path fill="#ccccc9" d="M 316.253906 230.355469 C 316.738281 230.183594 317.210938 230.019531 317.695312 229.84375 C 317.878906 230.210938 318.066406 230.578125 318.25 230.949219 C 318.515625 231.480469 318.789062 232.011719 319.035156 232.554688 C 319.113281 232.726562 319.140625 232.929688 319.164062 233.121094 C 319.210938 233.542969 319.230469 233.96875 319.292969 234.386719 C 319.320312 234.59375 319.414062 234.792969 319.488281 234.992188 C 320.128906 236.78125 320.777344 238.570312 321.417969 240.359375 C 321.753906 241.296875 322.082031 242.238281 322.421875 243.175781 C 323.039062 244.902344 323.664062 246.621094 324.285156 248.34375 C 324.546875 249.066406 324.804688 249.789062 325.066406 250.515625 C 324.617188 250.671875 324.175781 250.824219 323.691406 250.992188 C 323.585938 250.679688 323.480469 250.34375 323.363281 250.011719 C 322.996094 248.984375 322.625 247.953125 322.253906 246.925781 C 321.828125 245.722656 321.398438 244.515625 320.964844 243.308594 C 320.777344 242.78125 320.582031 242.253906 320.390625 241.726562 C 320.027344 240.71875 319.667969 239.710938 319.300781 238.699219 C 318.859375 237.46875 318.425781 236.230469 317.964844 235.003906 C 317.875 234.757812 317.6875 234.550781 317.542969 234.328125 C 317.367188 234.0625 317.183594 233.804688 317.015625 233.53125 C 316.964844 233.453125 316.945312 233.34375 316.925781 233.25 C 316.703125 232.3125 316.484375 231.375 316.269531 230.441406 L 316.253906 230.355469 " fill-opacity="1" fill-rule="nonzero"/><path fill="#4368bb" d="M 326.242188 250.539062 C 325.824219 250.683594 325.410156 250.832031 324.980469 250.980469 C 325.070312 251.207031 325.160156 251.449219 325.25 251.691406 C 325.367188 252 325.738281 252.183594 326.050781 252.09375 C 326.394531 251.996094 326.621094 251.644531 326.527344 251.316406 C 326.445312 251.039062 326.328125 250.777344 326.242188 250.539062 Z M 322.804688 251.722656 L 322.832031 251.820312 C 322.910156 252.039062 322.980469 252.261719 323.070312 252.476562 C 323.210938 252.8125 323.523438 252.96875 323.867188 252.878906 C 324.191406 252.789062 324.421875 252.480469 324.34375 252.144531 C 324.277344 251.847656 324.128906 251.574219 324.015625 251.292969 C 323.632812 251.429688 323.226562 251.574219 322.804688 251.722656 Z M 325.230469 255.097656 C 325.121094 255.085938 325.015625 255.050781 324.910156 255.054688 C 324.433594 255.078125 324.160156 255.53125 324.332031 256.007812 C 324.441406 256.316406 324.554688 256.621094 324.667969 256.929688 C 325.144531 258.261719 325.621094 259.59375 326.097656 260.925781 C 326.492188 262.023438 326.886719 263.125 327.285156 264.21875 C 327.519531 264.867188 327.742188 265.523438 327.988281 266.167969 C 328.128906 266.542969 328.515625 266.699219 328.875 266.554688 C 329.21875 266.417969 329.359375 266.035156 329.226562 265.667969 C 328.992188 265.027344 328.765625 264.386719 328.539062 263.75 C 328.214844 262.851562 327.898438 261.953125 327.570312 261.054688 C 327.25 260.152344 326.921875 259.25 326.597656 258.347656 C 326.257812 257.402344 325.921875 256.453125 325.582031 255.503906 C 325.519531 255.324219 325.394531 255.203125 325.230469 255.097656 Z M 327.433594 254.34375 C 327.164062 254.210938 326.871094 254.25 326.675781 254.445312 C 326.476562 254.640625 326.398438 254.875 326.496094 255.148438 C 326.808594 256.027344 327.121094 256.898438 327.4375 257.773438 C 327.855469 258.933594 328.265625 260.101562 328.6875 261.265625 C 329.179688 262.632812 329.667969 264.003906 330.164062 265.371094 C 330.328125 265.839844 330.941406 265.976562 331.28125 265.613281 C 331.515625 265.367188 331.496094 265.089844 331.382812 264.792969 C 331.109375 264.054688 330.847656 263.308594 330.582031 262.566406 C 330.253906 261.664062 329.933594 260.765625 329.609375 259.863281 C 329.277344 258.945312 328.949219 258.027344 328.621094 257.113281 C 328.339844 256.316406 328.054688 255.523438 327.765625 254.730469 C 327.703125 254.550781 327.59375 254.40625 327.433594 254.34375 Z M 321.75 251.460938 C 323.464844 250.847656 325.15625 250.242188 326.886719 249.621094 C 326.992188 249.921875 327.097656 250.238281 327.203125 250.550781 C 327.304688 250.835938 327.410156 251.121094 327.511719 251.402344 C 327.546875 251.488281 327.535156 251.542969 327.476562 251.617188 C 326.808594 252.429688 327.242188 253.644531 328.273438 253.851562 C 328.378906 253.871094 328.417969 253.921875 328.453125 254.015625 C 328.992188 255.523438 329.535156 257.035156 330.074219 258.542969 C 330.59375 259.980469 331.105469 261.417969 331.621094 262.855469 C 331.835938 263.457031 332.058594 264.058594 332.273438 264.660156 C 332.683594 265.808594 332.097656 267.0625 330.949219 267.476562 C 330.503906 267.632812 330.0625 267.8125 329.609375 267.914062 C 328.617188 268.136719 327.527344 267.507812 327.179688 266.546875 C 326.402344 264.382812 325.625 262.21875 324.847656 260.054688 C 324.339844 258.640625 323.832031 257.234375 323.328125 255.820312 L 323.359375 255.636719 C 324.035156 254.777344 323.609375 253.605469 322.546875 253.375 L 322.414062 253.277344 C 322.191406 252.671875 321.96875 252.066406 321.75 251.460938 " fill-opacity="1" fill-rule="nonzero"/><path fill="#3a5bb2" d="M 327.433594 254.34375 C 327.59375 254.40625 327.703125 254.550781 327.765625 254.730469 C 328.054688 255.523438 328.339844 256.316406 328.621094 257.113281 C 328.949219 258.027344 329.277344 258.945312 329.609375 259.863281 C 329.933594 260.765625 330.253906 261.664062 330.582031 262.566406 C 330.847656 263.308594 331.109375 264.054688 331.382812 264.792969 C 331.496094 265.089844 331.515625 265.367188 331.28125 265.613281 C 330.941406 265.976562 330.328125 265.839844 330.164062 265.371094 C 329.667969 264.003906 329.179688 262.632812 328.6875 261.265625 C 328.265625 260.101562 327.855469 258.933594 327.4375 257.773438 C 327.121094 256.898438 326.808594 256.027344 326.496094 255.148438 C 326.398438 254.875 326.476562 254.640625 326.675781 254.445312 C 326.871094 254.25 327.164062 254.210938 327.433594 254.34375 " fill-opacity="1" fill-rule="nonzero"/><path fill="#3a5bb2" d="M 325.230469 255.097656 C 325.394531 255.203125 325.519531 255.324219 325.582031 255.503906 C 325.921875 256.453125 326.257812 257.402344 326.597656 258.347656 C 326.921875 259.25 327.25 260.152344 327.570312 261.054688 C 327.898438 261.953125 328.214844 262.851562 328.539062 263.75 C 328.765625 264.386719 328.992188 265.027344 329.226562 265.667969 C 329.359375 266.035156 329.21875 266.417969 328.875 266.554688 C 328.515625 266.699219 328.128906 266.542969 327.988281 266.167969 C 327.742188 265.523438 327.519531 264.867188 327.285156 264.21875 C 326.886719 263.125 326.492188 262.023438 326.097656 260.925781 C 325.621094 259.59375 325.144531 258.261719 324.667969 256.929688 C 324.554688 256.621094 324.441406 256.316406 324.332031 256.007812 C 324.160156 255.53125 324.433594 255.078125 324.910156 255.054688 C 325.015625 255.050781 325.121094 255.085938 325.230469 255.097656 " fill-opacity="1" fill-rule="nonzero"/><path fill="#3a5bb2" d="M 322.804688 251.722656 C 323.226562 251.574219 323.632812 251.429688 324.015625 251.292969 C 324.128906 251.574219 324.277344 251.847656 324.34375 252.144531 C 324.421875 252.480469 324.191406 252.789062 323.867188 252.878906 C 323.523438 252.96875 323.210938 252.8125 323.070312 252.476562 C 322.980469 252.261719 322.910156 252.039062 322.832031 251.820312 L 322.804688 251.722656 " fill-opacity="1" fill-rule="nonzero"/><path fill="#3a5bb2" d="M 326.242188 250.539062 C 326.328125 250.777344 326.445312 251.039062 326.527344 251.316406 C 326.621094 251.644531 326.394531 251.996094 326.050781 252.09375 C 325.738281 252.183594 325.367188 252 325.25 251.691406 C 325.160156 251.449219 325.070312 251.207031 324.980469 250.980469 C 325.410156 250.832031 325.824219 250.683594 326.242188 250.539062 " fill-opacity="1" fill-rule="nonzero"/><path fill="#f05b1a" d="M 364.695312 281.589844 L 313.019531 281.589844 C 311.664062 281.589844 310.566406 280.492188 310.566406 279.132812 L 310.566406 260.421875 L 367.148438 260.421875 L 367.148438 279.132812 C 367.148438 280.492188 366.050781 281.589844 364.695312 281.589844 " fill-opacity="1" fill-rule="nonzero"/><path fill="#cb4f1f" d="M 368.871094 261.652344 L 310.074219 261.652344 C 309.535156 261.652344 309.089844 261.210938 309.089844 260.667969 L 309.089844 258.203125 C 309.089844 257.664062 309.535156 257.222656 310.074219 257.222656 L 368.871094 257.222656 C 369.414062 257.222656 369.855469 257.664062 369.855469 258.203125 L 369.855469 260.667969 C 369.855469 261.210938 369.414062 261.652344 368.871094 261.652344 " fill-opacity="1" fill-rule="nonzero"/><path fill="#ffffff" d="M 345.839844 271.253906 C 345.839844 275.636719 342.292969 279.191406 337.910156 279.191406 C 333.527344 279.191406 329.976562 275.636719 329.976562 271.253906 C 329.976562 266.871094 333.527344 263.316406 337.910156 263.316406 C 342.292969 263.316406 345.839844 266.871094 345.839844 271.253906 " fill-opacity="1" fill-rule="nonzero"/></svg>