<svg xmlns="http://www.w3.org/2000/svg" xmlns:xlink="http://www.w3.org/1999/xlink" width="500" zoomAndPan="magnify" viewBox="0 0 375 374.999991" height="500" preserveAspectRatio="xMidYMid meet" version="1.0"><path fill="#57a4ff" d="M 191.125 49.4375 C 188.988281 49.433594 186.851562 49.480469 184.71875 49.578125 C 182.585938 49.675781 180.453125 49.820312 178.328125 50.015625 C 176.199219 50.210938 174.078125 50.457031 171.960938 50.75 C 169.84375 51.042969 167.738281 51.386719 165.636719 51.78125 C 163.539062 52.171875 161.449219 52.613281 159.367188 53.101562 C 157.289062 53.589844 155.222656 54.128906 153.167969 54.714844 C 151.113281 55.300781 149.074219 55.933594 147.046875 56.613281 C 145.023438 57.292969 143.015625 58.019531 141.023438 58.792969 C 139.03125 59.566406 137.058594 60.386719 135.105469 61.25 C 133.152344 62.117188 131.21875 63.027344 129.308594 63.980469 C 127.398438 64.9375 125.511719 65.9375 123.644531 66.980469 C 121.78125 68.019531 119.941406 69.105469 118.128906 70.234375 C 116.3125 71.363281 114.527344 72.535156 112.765625 73.746094 C 111.007812 74.957031 109.277344 76.207031 107.574219 77.5 C 105.875 78.792969 104.203125 80.121094 102.5625 81.492188 C 100.921875 82.859375 99.316406 84.265625 97.742188 85.710938 C 96.167969 87.15625 94.628906 88.636719 93.121094 90.152344 C 91.617188 91.667969 90.148438 93.21875 88.714844 94.800781 C 87.28125 96.386719 85.882812 98 84.527344 99.648438 C 83.167969 101.300781 81.847656 102.980469 80.566406 104.6875 C 79.289062 106.398438 78.046875 108.136719 76.847656 109.90625 C 75.648438 111.675781 74.492188 113.46875 73.375 115.289062 C 72.257812 117.113281 71.1875 118.957031 70.15625 120.832031 C 69.125 122.703125 68.140625 124.597656 67.195312 126.515625 C 66.253906 128.429688 65.359375 130.371094 64.507812 132.328125 C 63.652344 134.289062 62.847656 136.265625 62.085938 138.261719 C 61.328125 140.257812 60.613281 142.273438 59.949219 144.300781 C 59.28125 146.332031 58.664062 148.375 58.089844 150.433594 C 57.519531 152.492188 56.996094 154.5625 56.519531 156.644531 C 56.046875 158.730469 55.617188 160.820312 55.242188 162.925781 C 54.863281 165.027344 54.535156 167.136719 54.253906 169.253906 C 53.972656 171.371094 53.742188 173.496094 53.5625 175.625 C 53.5625 175.9375 53.4375 176.25 53.4375 176.5625 C 53.03125 182.015625 52.90625 187.472656 53.0625 192.9375 C 53.160156 195.058594 53.304688 197.175781 53.496094 199.292969 C 53.691406 201.40625 53.933594 203.515625 54.222656 205.621094 C 54.511719 207.726562 54.851562 209.820312 55.238281 211.910156 C 55.621094 213.996094 56.054688 216.078125 56.539062 218.144531 C 57.019531 220.214844 57.546875 222.269531 58.125 224.3125 C 58.699219 226.359375 59.320312 228.386719 59.992188 230.402344 C 60.660156 232.417969 61.375 234.417969 62.132812 236.402344 C 62.894531 238.386719 63.699219 240.351562 64.550781 242.296875 C 65.402344 244.242188 66.296875 246.167969 67.234375 248.074219 C 68.175781 249.976562 69.15625 251.859375 70.179688 253.71875 C 71.207031 255.582031 72.273438 257.414062 73.382812 259.226562 C 74.492188 261.039062 75.640625 262.824219 76.832031 264.582031 C 78.023438 266.339844 79.253906 268.070312 80.527344 269.769531 C 81.796875 271.472656 83.105469 273.144531 84.453125 274.789062 C 85.800781 276.429688 87.183594 278.039062 88.605469 279.617188 C 90.023438 281.195312 91.480469 282.742188 92.972656 284.253906 C 94.464844 285.765625 95.992188 287.242188 97.550781 288.683594 C 99.109375 290.125 100.699219 291.53125 102.324219 292.898438 C 103.949219 294.269531 105.601562 295.597656 107.289062 296.890625 C 108.972656 298.183594 110.6875 299.4375 112.429688 300.652344 C 114.171875 301.867188 115.941406 303.042969 117.738281 304.175781 C 119.53125 305.308594 121.355469 306.398438 123.199219 307.449219 C 125.046875 308.5 126.914062 309.507812 128.808594 310.46875 C 130.699219 311.433594 132.613281 312.355469 134.550781 313.230469 C 136.484375 314.105469 138.4375 314.9375 140.410156 315.726562 C 142.382812 316.511719 144.371094 317.253906 146.378906 317.949219 C 148.386719 318.644531 150.40625 319.292969 152.445312 319.898438 C 154.480469 320.5 156.527344 321.054688 158.589844 321.5625 C 160.652344 322.074219 162.726562 322.535156 164.808594 322.949219 C 166.890625 323.363281 168.984375 323.730469 171.082031 324.046875 C 173.183594 324.363281 175.289062 324.632812 177.402344 324.855469 C 179.511719 325.078125 181.628906 325.25 183.75 325.375 C 186.125 325.5 188.5 325.5625 190.875 325.5625 C 194.449219 325.554688 198.015625 325.40625 201.578125 325.121094 C 205.140625 324.835938 208.6875 324.414062 212.214844 323.855469 C 215.746094 323.296875 219.25 322.601562 222.726562 321.773438 C 226.199219 320.941406 229.640625 319.980469 233.042969 318.882812 C 236.441406 317.789062 239.796875 316.566406 243.105469 315.210938 C 246.410156 313.855469 249.660156 312.375 252.855469 310.773438 C 256.046875 309.167969 259.171875 307.441406 262.234375 305.59375 C 265.292969 303.746094 268.277344 301.785156 271.183594 299.707031 C 274.09375 297.632812 276.914062 295.445312 279.65625 293.148438 C 282.394531 290.855469 285.039062 288.457031 287.59375 285.957031 C 290.148438 283.457031 292.601562 280.863281 294.957031 278.175781 C 297.308594 275.484375 299.554688 272.710938 301.695312 269.847656 C 303.835938 266.984375 305.859375 264.042969 307.773438 261.023438 C 309.683594 258.003906 311.476562 254.917969 313.148438 251.757812 C 314.824219 248.601562 316.371094 245.382812 317.796875 242.105469 C 319.222656 238.828125 320.519531 235.503906 321.6875 232.125 C 322.03125 231.167969 322.128906 230.1875 321.988281 229.179688 C 321.84375 228.175781 321.472656 227.261719 320.875 226.4375 C 320.289062 225.621094 319.550781 224.984375 318.65625 224.519531 C 317.765625 224.058594 316.816406 223.820312 315.8125 223.8125 C 314.792969 223.8125 313.777344 223.761719 312.761719 223.664062 C 311.746094 223.5625 310.738281 223.414062 309.738281 223.214844 C 308.742188 223.015625 307.753906 222.769531 306.777344 222.472656 C 305.800781 222.175781 304.84375 221.832031 303.902344 221.441406 C 302.960938 221.054688 302.039062 220.617188 301.140625 220.136719 C 300.242188 219.65625 299.367188 219.132812 298.519531 218.566406 C 297.671875 218 296.855469 217.394531 296.066406 216.746094 C 295.277344 216.101562 294.523438 215.417969 293.804688 214.695312 C 293.082031 213.976562 292.398438 213.222656 291.753906 212.433594 C 291.105469 211.644531 290.5 210.828125 289.933594 209.980469 C 289.367188 209.132812 288.84375 208.257812 288.363281 207.359375 C 287.882812 206.460938 287.445312 205.539062 287.058594 204.597656 C 286.667969 203.65625 286.324219 202.699219 286.027344 201.722656 C 285.730469 200.746094 285.484375 199.757812 285.285156 198.757812 C 285.085938 197.761719 284.9375 196.753906 284.835938 195.738281 C 284.738281 194.722656 284.6875 193.707031 284.6875 192.6875 L 284.6875 182.1875 C 284.6875 181.167969 284.738281 180.152344 284.835938 179.136719 C 284.9375 178.121094 285.085938 177.113281 285.285156 176.117188 C 285.484375 175.117188 285.730469 174.128906 286.027344 173.152344 C 286.324219 172.175781 286.667969 171.21875 287.058594 170.277344 C 287.445312 169.335938 287.882812 168.414062 288.363281 167.515625 C 288.84375 166.617188 289.367188 165.742188 289.933594 164.894531 C 290.5 164.046875 291.105469 163.230469 291.753906 162.441406 C 292.398438 161.652344 293.082031 160.898438 293.804688 160.179688 C 294.523438 159.457031 295.277344 158.773438 296.066406 158.128906 C 296.855469 157.480469 297.671875 156.875 298.519531 156.308594 C 299.367188 155.742188 300.242188 155.21875 301.140625 154.738281 C 302.039062 154.257812 302.960938 153.820312 303.902344 153.433594 C 304.84375 153.042969 305.800781 152.699219 306.777344 152.402344 C 307.753906 152.105469 308.742188 151.859375 309.742188 151.660156 C 310.738281 151.460938 311.746094 151.3125 312.761719 151.210938 C 313.777344 151.113281 314.792969 151.0625 315.8125 151.0625 C 316.816406 151.054688 317.765625 150.816406 318.65625 150.355469 C 319.550781 149.890625 320.289062 149.253906 320.875 148.4375 C 321.46875 147.625 321.839844 146.722656 321.984375 145.726562 C 322.125 144.730469 322.027344 143.757812 321.6875 142.8125 C 320.535156 139.433594 319.25 136.101562 317.839844 132.824219 C 316.425781 129.542969 314.890625 126.324219 313.226562 123.164062 C 311.566406 120.003906 309.785156 116.910156 307.882812 113.890625 C 305.980469 110.867188 303.960938 107.921875 301.832031 105.058594 C 299.699219 102.191406 297.460938 99.414062 295.113281 96.722656 C 292.769531 94.03125 290.320312 91.433594 287.773438 88.933594 C 285.222656 86.429688 282.582031 84.03125 279.847656 81.734375 C 277.113281 79.441406 274.292969 77.253906 271.390625 75.175781 C 268.484375 73.097656 265.503906 71.136719 262.445312 69.289062 C 259.390625 67.445312 256.265625 65.722656 253.074219 64.117188 C 249.882812 62.515625 246.636719 61.039062 243.332031 59.6875 C 240.023438 58.335938 236.671875 57.117188 233.269531 56.023438 C 229.871094 54.933594 226.433594 53.976562 222.957031 53.152344 C 219.484375 52.332031 215.980469 51.644531 212.453125 51.09375 C 208.925781 50.539062 205.382812 50.125 201.820312 49.851562 C 198.261719 49.574219 194.695312 49.4375 191.125 49.4375 Z M 220.9375 285.875 L 220.9375 276.8125 C 220.9375 276.402344 220.976562 275.996094 221.058594 275.59375 C 221.136719 275.191406 221.257812 274.800781 221.414062 274.421875 C 221.570312 274.042969 221.761719 273.679688 221.992188 273.339844 C 222.21875 273 222.476562 272.683594 222.769531 272.394531 C 223.058594 272.101562 223.375 271.84375 223.714844 271.617188 C 224.054688 271.386719 224.417969 271.195312 224.796875 271.039062 C 225.175781 270.882812 225.566406 270.761719 225.96875 270.683594 C 226.371094 270.601562 226.777344 270.5625 227.1875 270.5625 C 227.597656 270.5625 228.003906 270.601562 228.40625 270.683594 C 228.808594 270.761719 229.199219 270.882812 229.578125 271.039062 C 229.957031 271.195312 230.320312 271.386719 230.660156 271.617188 C 231 271.84375 231.316406 272.101562 231.605469 272.394531 C 231.898438 272.683594 232.15625 273 232.382812 273.339844 C 232.613281 273.679688 232.804688 274.042969 232.960938 274.421875 C 233.117188 274.800781 233.238281 275.191406 233.316406 275.59375 C 233.398438 275.996094 233.4375 276.402344 233.4375 276.8125 L 233.4375 285.875 C 233.4375 286.285156 233.398438 286.691406 233.316406 287.09375 C 233.238281 287.496094 233.117188 287.886719 232.960938 288.265625 C 232.804688 288.644531 232.613281 289.007812 232.382812 289.347656 C 232.15625 289.6875 231.898438 290.003906 231.605469 290.292969 C 231.316406 290.585938 231 290.84375 230.660156 291.070312 C 230.320312 291.300781 229.957031 291.492188 229.578125 291.648438 C 229.199219 291.804688 228.808594 291.925781 228.40625 292.003906 C 228.003906 292.085938 227.597656 292.125 227.1875 292.125 C 226.777344 292.125 226.371094 292.085938 225.96875 292.003906 C 225.566406 291.925781 225.175781 291.804688 224.796875 291.648438 C 224.417969 291.492188 224.054688 291.300781 223.714844 291.070312 C 223.375 290.84375 223.058594 290.585938 222.769531 290.292969 C 222.476562 290.003906 222.21875 289.6875 221.992188 289.347656 C 221.761719 289.007812 221.570312 288.644531 221.414062 288.265625 C 221.257812 287.886719 221.136719 287.496094 221.058594 287.09375 C 220.976562 286.691406 220.9375 286.285156 220.9375 285.875 Z M 187.5 292.125 L 187.25 292.125 C 181.144531 291.988281 175.101562 291.296875 169.125 290.042969 C 163.148438 288.792969 157.335938 287.003906 151.6875 284.679688 C 146.039062 282.355469 140.652344 279.535156 135.527344 276.21875 C 130.398438 272.898438 125.621094 269.136719 121.1875 264.9375 C 114.261719 258.0625 108.636719 250.25 104.3125 241.5 C 104.089844 241.132812 103.910156 240.746094 103.765625 240.339844 C 103.625 239.933594 103.527344 239.519531 103.472656 239.089844 C 103.414062 238.664062 103.402344 238.238281 103.433594 237.808594 C 103.46875 237.382812 103.542969 236.960938 103.660156 236.546875 C 103.78125 236.132812 103.941406 235.738281 104.140625 235.359375 C 104.34375 234.976562 104.578125 234.621094 104.855469 234.292969 C 105.128906 233.960938 105.433594 233.660156 105.769531 233.394531 C 106.105469 233.125 106.464844 232.894531 106.847656 232.699219 C 107.230469 232.507812 107.628906 232.351562 108.046875 232.242188 C 108.460938 232.128906 108.882812 232.0625 109.3125 232.039062 C 109.742188 232.011719 110.167969 232.03125 110.59375 232.097656 C 111.015625 232.160156 111.429688 232.265625 111.835938 232.414062 C 112.238281 232.5625 112.621094 232.753906 112.984375 232.980469 C 113.351562 233.210938 113.6875 233.472656 113.996094 233.769531 C 114.308594 234.066406 114.582031 234.394531 114.824219 234.746094 C 115.070312 235.101562 115.273438 235.476562 115.4375 235.875 C 119.210938 243.382812 124.066406 250.113281 130 256.0625 C 133.882812 259.714844 138.066406 262.984375 142.554688 265.867188 C 147.039062 268.746094 151.75 271.195312 156.683594 273.210938 C 161.621094 275.222656 166.699219 276.769531 171.921875 277.847656 C 177.144531 278.925781 182.417969 279.519531 187.75 279.625 C 188.160156 279.632812 188.566406 279.683594 188.964844 279.769531 C 189.367188 279.859375 189.753906 279.984375 190.128906 280.148438 C 190.507812 280.316406 190.863281 280.515625 191.199219 280.75 C 191.535156 280.984375 191.84375 281.25 192.128906 281.546875 C 192.414062 281.839844 192.664062 282.164062 192.886719 282.507812 C 193.109375 282.855469 193.292969 283.21875 193.441406 283.601562 C 193.589844 283.980469 193.703125 284.375 193.773438 284.777344 C 193.847656 285.183594 193.878906 285.589844 193.871094 286 C 193.863281 286.410156 193.8125 286.816406 193.726562 287.214844 C 193.636719 287.617188 193.511719 288.003906 193.347656 288.382812 C 193.183594 288.757812 192.984375 289.113281 192.746094 289.449219 C 192.511719 289.785156 192.25 290.097656 191.953125 290.378906 C 191.65625 290.664062 191.335938 290.917969 190.992188 291.140625 C 190.644531 291.359375 190.28125 291.546875 189.898438 291.695312 C 189.519531 291.84375 189.125 291.957031 188.722656 292.027344 C 188.316406 292.101562 187.910156 292.132812 187.5 292.125 Z M 272.1875 182.1875 L 272.1875 193.125 C 261.816406 194.660156 251.398438 195.074219 240.9375 194.375 C 229.695312 193.234375 218.644531 191.101562 207.785156 187.972656 C 196.929688 184.84375 186.4375 180.769531 176.3125 175.75 C 152.5 165.4375 130.0625 155.75 98.75 158.875 C 87.929688 159.996094 77.429688 162.472656 67.25 166.3125 C 67.558594 164.503906 67.910156 162.703125 68.300781 160.914062 C 68.6875 159.121094 69.117188 157.335938 69.582031 155.5625 C 70.050781 153.789062 70.554688 152.027344 71.101562 150.277344 C 71.644531 148.523438 72.226562 146.785156 72.847656 145.0625 C 73.46875 143.335938 74.125 141.625 74.820312 139.925781 C 75.515625 138.230469 76.25 136.546875 77.019531 134.882812 C 77.789062 133.21875 78.59375 131.570312 79.433594 129.941406 C 80.273438 128.3125 81.152344 126.699219 82.0625 125.109375 C 82.976562 123.519531 83.921875 121.949219 84.902344 120.398438 C 85.882812 118.847656 86.898438 117.320312 87.945312 115.816406 C 88.992188 114.308594 90.070312 112.828125 91.183594 111.367188 C 92.296875 109.910156 93.441406 108.476562 94.613281 107.070312 C 95.789062 105.660156 96.996094 104.28125 98.230469 102.925781 C 99.46875 101.570312 100.730469 100.242188 102.023438 98.941406 C 103.320312 97.640625 104.640625 96.371094 105.992188 95.128906 C 107.339844 93.886719 108.714844 92.675781 110.117188 91.492188 C 111.519531 90.3125 112.949219 89.160156 114.402344 88.042969 C 115.855469 86.921875 117.332031 85.835938 118.832031 84.78125 C 120.332031 83.726562 121.855469 82.707031 123.398438 81.71875 C 124.945312 80.730469 126.511719 79.777344 128.097656 78.855469 C 129.6875 77.9375 131.292969 77.054688 132.917969 76.203125 C 134.542969 75.355469 136.1875 74.542969 137.847656 73.765625 C 139.511719 72.988281 141.1875 72.25 142.882812 71.546875 C 144.574219 70.84375 146.285156 70.175781 148.007812 69.546875 C 149.730469 68.917969 151.464844 68.328125 153.214844 67.773438 C 154.960938 67.222656 156.722656 66.707031 158.492188 66.234375 C 160.265625 65.757812 162.046875 65.320312 163.835938 64.921875 C 165.628906 64.527344 167.425781 64.167969 169.230469 63.847656 C 171.039062 63.53125 172.851562 63.25 174.667969 63.011719 C 176.488281 62.773438 178.308594 62.574219 180.136719 62.414062 C 181.964844 62.253906 183.792969 62.132812 185.625 62.054688 C 187.457031 61.976562 189.289062 61.9375 191.125 61.9375 C 194.207031 61.9375 197.285156 62.050781 200.359375 62.273438 C 203.433594 62.5 206.492188 62.839844 209.542969 63.292969 C 212.589844 63.742188 215.621094 64.304688 218.628906 64.980469 C 221.632812 65.65625 224.613281 66.441406 227.5625 67.335938 C 230.511719 68.230469 233.425781 69.230469 236.300781 70.339844 C 239.175781 71.449219 242.007812 72.664062 244.792969 73.980469 C 247.578125 75.300781 250.3125 76.71875 252.992188 78.238281 C 255.675781 79.757812 258.296875 81.375 260.859375 83.085938 C 263.421875 84.796875 265.917969 86.605469 268.347656 88.5 C 270.777344 90.398438 273.132812 92.382812 275.414062 94.453125 C 277.699219 96.523438 279.902344 98.675781 282.027344 100.90625 C 284.152344 103.140625 286.191406 105.449219 288.144531 107.832031 C 290.097656 110.214844 291.960938 112.667969 293.734375 115.1875 C 295.507812 117.710938 297.1875 120.292969 298.769531 122.9375 C 300.351562 125.582031 301.835938 128.28125 303.21875 131.035156 C 304.605469 133.789062 305.886719 136.589844 307.0625 139.4375 C 305.84375 139.6875 304.636719 139.992188 303.445312 140.347656 C 302.25 140.699219 301.074219 141.105469 299.917969 141.5625 C 298.757812 142.015625 297.621094 142.519531 296.507812 143.070312 C 295.390625 143.625 294.300781 144.222656 293.234375 144.867188 C 292.171875 145.511719 291.136719 146.203125 290.132812 146.9375 C 289.125 147.667969 288.152344 148.445312 287.214844 149.261719 C 286.277344 150.078125 285.371094 150.933594 284.507812 151.828125 C 283.640625 152.722656 282.8125 153.648438 282.027344 154.613281 C 281.242188 155.578125 280.496094 156.574219 279.792969 157.601562 C 279.09375 158.632812 278.4375 159.6875 277.824219 160.769531 C 277.214844 161.855469 276.648438 162.964844 276.132812 164.097656 C 275.617188 165.226562 275.148438 166.378906 274.730469 167.550781 C 274.3125 168.726562 273.945312 169.914062 273.628906 171.117188 C 273.308594 172.320312 273.046875 173.535156 272.832031 174.761719 C 272.621094 175.988281 272.460938 177.21875 272.351562 178.460938 C 272.242188 179.699219 272.1875 180.941406 272.1875 182.1875 Z M 272.1875 182.1875 " fill-opacity="1" fill-rule="nonzero"/><path fill="#57a4ff" d="M 187.5 0 C 184.429688 0 181.363281 0.0742188 178.300781 0.226562 C 175.234375 0.375 172.175781 0.601562 169.121094 0.902344 C 166.066406 1.203125 163.023438 1.578125 159.988281 2.03125 C 156.953125 2.480469 153.929688 3.003906 150.921875 3.601562 C 147.910156 4.203125 144.917969 4.875 141.941406 5.617188 C 138.964844 6.363281 136.007812 7.183594 133.070312 8.074219 C 130.136719 8.964844 127.222656 9.925781 124.332031 10.960938 C 121.445312 11.996094 118.582031 13.097656 115.746094 14.273438 C 112.910156 15.445312 110.105469 16.691406 107.332031 18.003906 C 104.558594 19.3125 101.820312 20.691406 99.113281 22.140625 C 96.40625 23.585938 93.738281 25.097656 91.105469 26.675781 C 88.472656 28.253906 85.882812 29.894531 83.332031 31.597656 C 80.777344 33.304688 78.269531 35.070312 75.804688 36.898438 C 73.339844 38.726562 70.921875 40.613281 68.550781 42.558594 C 66.179688 44.507812 63.855469 46.511719 61.582031 48.570312 C 59.308594 50.632812 57.085938 52.746094 54.917969 54.917969 C 52.746094 57.085938 50.632812 59.308594 48.570312 61.582031 C 46.511719 63.855469 44.507812 66.179688 42.558594 68.550781 C 40.613281 70.921875 38.726562 73.339844 36.898438 75.804688 C 35.070312 78.269531 33.304688 80.777344 31.597656 83.332031 C 29.894531 85.882812 28.253906 88.472656 26.675781 91.105469 C 25.097656 93.738281 23.585938 96.40625 22.140625 99.113281 C 20.691406 101.820312 19.3125 104.558594 18.003906 107.332031 C 16.691406 110.105469 15.445312 112.910156 14.273438 115.746094 C 13.097656 118.582031 11.996094 121.445312 10.960938 124.332031 C 9.925781 127.222656 8.964844 130.136719 8.074219 133.070312 C 7.183594 136.007812 6.363281 138.964844 5.621094 141.941406 C 4.875 144.917969 4.203125 147.910156 3.601562 150.921875 C 3.003906 153.929688 2.480469 156.953125 2.03125 159.988281 C 1.578125 163.023438 1.203125 166.066406 0.902344 169.121094 C 0.601562 172.175781 0.375 175.234375 0.226562 178.300781 C 0.0742188 181.363281 0 184.429688 0 187.5 C 0 190.570312 0.0742188 193.636719 0.226562 196.699219 C 0.375 199.765625 0.601562 202.824219 0.902344 205.878906 C 1.203125 208.933594 1.578125 211.976562 2.03125 215.011719 C 2.480469 218.046875 3.003906 221.070312 3.601562 224.078125 C 4.203125 227.089844 4.875 230.082031 5.621094 233.058594 C 6.363281 236.035156 7.183594 238.992188 8.074219 241.929688 C 8.964844 244.863281 9.925781 247.777344 10.960938 250.667969 C 11.996094 253.554688 13.097656 256.417969 14.273438 259.253906 C 15.445312 262.089844 16.691406 264.890625 18.003906 267.667969 C 19.3125 270.441406 20.691406 273.179688 22.140625 275.886719 C 23.585938 278.59375 25.097656 281.261719 26.675781 283.894531 C 28.253906 286.527344 29.894531 289.117188 31.597656 291.667969 C 33.304688 294.222656 35.070312 296.730469 36.898438 299.195312 C 38.726562 301.660156 40.613281 304.078125 42.558594 306.449219 C 44.507812 308.820312 46.511719 311.144531 48.570312 313.417969 C 50.632812 315.691406 52.746094 317.914062 54.917969 320.082031 C 57.085938 322.253906 59.308594 324.367188 61.582031 326.429688 C 63.855469 328.488281 66.179688 330.492188 68.550781 332.4375 C 70.921875 334.386719 73.339844 336.273438 75.804688 338.101562 C 78.269531 339.929688 80.777344 341.695312 83.332031 343.402344 C 85.882812 345.105469 88.472656 346.746094 91.105469 348.324219 C 93.738281 349.902344 96.40625 351.414062 99.113281 352.859375 C 101.820312 354.308594 104.558594 355.6875 107.332031 356.996094 C 110.105469 358.308594 112.910156 359.554688 115.746094 360.726562 C 118.582031 361.902344 121.445312 363.003906 124.332031 364.039062 C 127.222656 365.074219 130.136719 366.035156 133.070312 366.925781 C 136.007812 367.816406 138.964844 368.636719 141.941406 369.378906 C 144.917969 370.125 147.910156 370.796875 150.921875 371.398438 C 153.929688 371.996094 156.953125 372.519531 159.988281 372.96875 C 163.023438 373.421875 166.066406 373.796875 169.121094 374.097656 C 172.175781 374.398438 175.234375 374.625 178.300781 374.773438 C 181.363281 374.925781 184.429688 375 187.5 375 C 190.570312 375 193.636719 374.925781 196.699219 374.773438 C 199.765625 374.625 202.824219 374.398438 205.878906 374.097656 C 208.933594 373.796875 211.976562 373.421875 215.011719 372.96875 C 218.046875 372.519531 221.070312 371.996094 224.078125 371.398438 C 227.089844 370.796875 230.082031 370.125 233.058594 369.378906 C 236.035156 368.636719 238.992188 367.816406 241.929688 366.925781 C 244.863281 366.035156 247.777344 365.074219 250.667969 364.039062 C 253.554688 363.003906 256.417969 361.902344 259.253906 360.726562 C 262.089844 359.554688 264.890625 358.308594 267.667969 356.996094 C 270.441406 355.6875 273.179688 354.308594 275.886719 352.859375 C 278.59375 351.414062 281.261719 349.902344 283.894531 348.324219 C 286.527344 346.746094 289.117188 345.105469 291.667969 343.402344 C 294.222656 341.695312 296.730469 339.929688 299.195312 338.101562 C 301.660156 336.273438 304.078125 334.386719 306.449219 332.4375 C 308.820312 330.492188 311.144531 328.488281 313.417969 326.429688 C 315.691406 324.367188 317.914062 322.253906 320.082031 320.082031 C 322.253906 317.914062 324.367188 315.691406 326.429688 313.417969 C 328.488281 311.144531 330.492188 308.820312 332.4375 306.449219 C 334.386719 304.078125 336.273438 301.660156 338.101562 299.195312 C 339.929688 296.730469 341.695312 294.222656 343.402344 291.667969 C 345.105469 289.117188 346.746094 286.527344 348.324219 283.894531 C 349.902344 281.261719 351.414062 278.59375 352.859375 275.886719 C 354.308594 273.179688 355.6875 270.441406 356.996094 267.667969 C 358.308594 264.890625 359.554688 262.089844 360.726562 259.253906 C 361.902344 256.417969 363.003906 253.554688 364.039062 250.667969 C 365.074219 247.777344 366.035156 244.863281 366.925781 241.929688 C 367.816406 238.992188 368.636719 236.035156 369.378906 233.058594 C 370.125 230.082031 370.796875 227.089844 371.398438 224.078125 C 371.996094 221.070312 372.519531 218.046875 372.96875 215.011719 C 373.421875 211.976562 373.796875 208.933594 374.097656 205.878906 C 374.398438 202.824219 374.625 199.765625 374.773438 196.699219 C 374.925781 193.636719 375 190.570312 375 187.5 C 374.996094 184.433594 374.917969 181.367188 374.761719 178.304688 C 374.609375 175.238281 374.378906 172.179688 374.078125 169.128906 C 373.773438 166.078125 373.394531 163.035156 372.941406 160 C 372.488281 156.964844 371.960938 153.945312 371.359375 150.9375 C 370.757812 147.929688 370.082031 144.9375 369.335938 141.960938 C 368.585938 138.988281 367.765625 136.03125 366.875 133.097656 C 365.980469 130.164062 365.019531 127.25 363.980469 124.363281 C 362.945312 121.476562 361.839844 118.617188 360.664062 115.78125 C 359.488281 112.949219 358.246094 110.148438 356.933594 107.375 C 355.621094 104.601562 354.238281 101.863281 352.792969 99.160156 C 351.34375 96.453125 349.832031 93.785156 348.253906 91.15625 C 346.675781 88.527344 345.035156 85.933594 343.328125 83.386719 C 341.625 80.835938 339.859375 78.328125 338.03125 75.863281 C 336.203125 73.402344 334.316406 70.984375 332.367188 68.613281 C 330.421875 66.242188 328.417969 63.921875 326.359375 61.648438 C 324.296875 59.375 322.183594 57.152344 320.015625 54.984375 C 317.847656 52.816406 315.625 50.703125 313.351562 48.640625 C 311.078125 46.582031 308.757812 44.578125 306.386719 42.632812 C 304.015625 40.683594 301.597656 38.796875 299.136719 36.96875 C 296.671875 35.140625 294.164062 33.375 291.613281 31.671875 C 289.066406 29.964844 286.472656 28.324219 283.84375 26.746094 C 281.214844 25.167969 278.546875 23.65625 275.839844 22.207031 C 273.136719 20.761719 270.398438 19.378906 267.625 18.066406 C 264.851562 16.753906 262.050781 15.511719 259.21875 14.335938 C 256.382812 13.160156 253.523438 12.054688 250.636719 11.019531 C 247.75 9.980469 244.835938 9.019531 241.902344 8.125 C 238.96875 7.234375 236.011719 6.414062 233.039062 5.664062 C 230.0625 4.917969 227.070312 4.242188 224.0625 3.640625 C 221.054688 3.039062 218.035156 2.511719 215 2.058594 C 211.964844 1.605469 208.921875 1.226562 205.871094 0.921875 C 202.820312 0.621094 199.761719 0.390625 196.695312 0.238281 C 193.632812 0.0820312 190.566406 0.00390625 187.5 0 Z M 187.5 362.5 C 184.636719 362.5 181.773438 362.429688 178.914062 362.289062 C 176.050781 362.148438 173.195312 361.9375 170.347656 361.65625 C 167.496094 361.375 164.65625 361.027344 161.820312 360.605469 C 158.988281 360.1875 156.167969 359.695312 153.359375 359.136719 C 150.550781 358.578125 147.757812 357.953125 144.976562 357.253906 C 142.199219 356.558594 139.441406 355.796875 136.699219 354.964844 C 133.960938 354.132812 131.242188 353.234375 128.542969 352.269531 C 125.847656 351.304688 123.175781 350.273438 120.53125 349.179688 C 117.882812 348.082031 115.265625 346.921875 112.679688 345.699219 C 110.089844 344.472656 107.53125 343.1875 105.003906 341.835938 C 102.480469 340.484375 99.988281 339.074219 97.53125 337.601562 C 95.074219 336.128906 92.65625 334.597656 90.273438 333.007812 C 87.894531 331.414062 85.554688 329.765625 83.253906 328.0625 C 80.953125 326.355469 78.695312 324.59375 76.480469 322.777344 C 74.265625 320.960938 72.097656 319.089844 69.976562 317.167969 C 67.855469 315.242188 65.78125 313.269531 63.757812 311.242188 C 61.730469 309.21875 59.757812 307.144531 57.832031 305.023438 C 55.910156 302.902344 54.039062 300.734375 52.222656 298.519531 C 50.40625 296.304688 48.644531 294.046875 46.9375 291.746094 C 45.234375 289.445312 43.582031 287.105469 41.992188 284.726562 C 40.402344 282.34375 38.871094 279.925781 37.398438 277.46875 C 35.925781 275.011719 34.515625 272.519531 33.164062 269.996094 C 31.8125 267.46875 30.527344 264.910156 29.300781 262.320312 C 28.078125 259.734375 26.917969 257.117188 25.820312 254.46875 C 24.726562 251.824219 23.695312 249.152344 22.730469 246.457031 C 21.765625 243.757812 20.867188 241.039062 20.035156 238.300781 C 19.203125 235.558594 18.441406 232.800781 17.746094 230.023438 C 17.046875 227.242188 16.421875 224.449219 15.863281 221.640625 C 15.304688 218.832031 14.8125 216.011719 14.394531 213.179688 C 13.972656 210.34375 13.625 207.503906 13.34375 204.652344 C 13.0625 201.804688 12.851562 198.949219 12.710938 196.085938 C 12.570312 193.226562 12.5 190.363281 12.5 187.5 C 12.5 184.636719 12.570312 181.773438 12.710938 178.914062 C 12.851562 176.050781 13.0625 173.195312 13.34375 170.347656 C 13.625 167.496094 13.972656 164.65625 14.394531 161.820312 C 14.8125 158.988281 15.304688 156.167969 15.863281 153.359375 C 16.421875 150.550781 17.046875 147.757812 17.746094 144.976562 C 18.441406 142.199219 19.203125 139.441406 20.035156 136.699219 C 20.867188 133.960938 21.765625 131.242188 22.730469 128.542969 C 23.695312 125.847656 24.726562 123.175781 25.820312 120.53125 C 26.917969 117.882812 28.078125 115.265625 29.300781 112.679688 C 30.527344 110.089844 31.8125 107.53125 33.164062 105.003906 C 34.515625 102.480469 35.925781 99.988281 37.398438 97.53125 C 38.871094 95.074219 40.402344 92.65625 41.992188 90.273438 C 43.582031 87.894531 45.234375 85.554688 46.9375 83.253906 C 48.644531 80.953125 50.40625 78.695312 52.222656 76.480469 C 54.039062 74.265625 55.910156 72.097656 57.832031 69.976562 C 59.757812 67.855469 61.730469 65.78125 63.757812 63.757812 C 65.78125 61.730469 67.855469 59.757812 69.976562 57.832031 C 72.097656 55.910156 74.265625 54.039062 76.480469 52.222656 C 78.695312 50.40625 80.953125 48.644531 83.253906 46.9375 C 85.554688 45.234375 87.894531 43.582031 90.273438 41.992188 C 92.65625 40.402344 95.074219 38.871094 97.53125 37.398438 C 99.988281 35.925781 102.480469 34.515625 105.003906 33.164062 C 107.53125 31.8125 110.089844 30.527344 112.679688 29.300781 C 115.265625 28.078125 117.882812 26.917969 120.53125 25.820312 C 123.175781 24.726562 125.847656 23.695312 128.542969 22.730469 C 131.242188 21.765625 133.960938 20.867188 136.699219 20.035156 C 139.441406 19.203125 142.199219 18.441406 144.976562 17.746094 C 147.757812 17.046875 150.550781 16.421875 153.359375 15.863281 C 156.167969 15.304688 158.988281 14.8125 161.820312 14.394531 C 164.65625 13.972656 167.496094 13.625 170.347656 13.34375 C 173.195312 13.0625 176.050781 12.851562 178.914062 12.710938 C 181.773438 12.570312 184.636719 12.5 187.5 12.5 C 190.363281 12.5 193.226562 12.570312 196.085938 12.710938 C 198.949219 12.851562 201.804688 13.0625 204.652344 13.34375 C 207.503906 13.625 210.34375 13.972656 213.179688 14.394531 C 216.011719 14.8125 218.832031 15.304688 221.640625 15.863281 C 224.449219 16.421875 227.242188 17.046875 230.023438 17.746094 C 232.800781 18.441406 235.558594 19.203125 238.300781 20.035156 C 241.039062 20.867188 243.757812 21.765625 246.457031 22.730469 C 249.152344 23.695312 251.824219 24.726562 254.46875 25.820312 C 257.117188 26.917969 259.734375 28.078125 262.320312 29.300781 C 264.910156 30.527344 267.46875 31.8125 269.996094 33.164062 C 272.519531 34.515625 275.011719 35.925781 277.46875 37.398438 C 279.925781 38.871094 282.34375 40.402344 284.726562 41.992188 C 287.105469 43.582031 289.445312 45.234375 291.746094 46.9375 C 294.046875 48.644531 296.304688 50.40625 298.519531 52.222656 C 300.734375 54.039062 302.902344 55.910156 305.023438 57.832031 C 307.144531 59.757812 309.21875 61.730469 311.242188 63.757812 C 313.269531 65.78125 315.242188 67.855469 317.167969 69.976562 C 319.089844 72.097656 320.960938 74.265625 322.777344 76.480469 C 324.59375 78.695312 326.355469 80.953125 328.0625 83.253906 C 329.765625 85.554688 331.414062 87.894531 333.007812 90.273438 C 334.597656 92.65625 336.128906 95.074219 337.601562 97.53125 C 339.074219 99.988281 340.484375 102.480469 341.835938 105.003906 C 343.1875 107.53125 344.472656 110.089844 345.699219 112.679688 C 346.921875 115.265625 348.082031 117.882812 349.179688 120.53125 C 350.273438 123.175781 351.304688 125.847656 352.269531 128.542969 C 353.234375 131.242188 354.132812 133.960938 354.964844 136.699219 C 355.796875 139.441406 356.558594 142.199219 357.253906 144.976562 C 357.953125 147.757812 358.578125 150.550781 359.136719 153.359375 C 359.695312 156.167969 360.1875 158.988281 360.605469 161.820312 C 361.027344 164.65625 361.375 167.496094 361.65625 170.347656 C 361.9375 173.195312 362.148438 176.050781 362.289062 178.914062 C 362.429688 181.773438 362.5 184.636719 362.5 187.5 C 362.496094 190.363281 362.421875 193.222656 362.28125 196.082031 C 362.136719 198.945312 361.921875 201.796875 361.640625 204.648438 C 361.355469 207.496094 361.003906 210.335938 360.582031 213.167969 C 360.15625 216 359.667969 218.820312 359.105469 221.628906 C 358.542969 224.433594 357.914062 227.226562 357.21875 230.003906 C 356.519531 232.78125 355.753906 235.539062 354.921875 238.277344 C 354.089844 241.015625 353.1875 243.734375 352.222656 246.429688 C 351.257812 249.125 350.222656 251.792969 349.128906 254.441406 C 348.03125 257.085938 346.867188 259.699219 345.644531 262.289062 C 344.417969 264.875 343.128906 267.429688 341.777344 269.957031 C 340.429688 272.480469 339.015625 274.96875 337.542969 277.425781 C 336.070312 279.882812 334.539062 282.296875 332.949219 284.679688 C 331.355469 287.058594 329.707031 289.398438 328 291.699219 C 326.296875 293.996094 324.535156 296.253906 322.71875 298.464844 C 320.902344 300.679688 319.03125 302.847656 317.109375 304.96875 C 315.183594 307.089844 313.210938 309.164062 311.1875 311.1875 C 309.164062 313.210938 307.089844 315.183594 304.96875 317.109375 C 302.847656 319.03125 300.679688 320.902344 298.46875 322.71875 C 296.253906 324.535156 293.996094 326.296875 291.699219 328 C 289.398438 329.707031 287.058594 331.355469 284.679688 332.949219 C 282.300781 334.539062 279.882812 336.070312 277.425781 337.542969 C 274.96875 339.015625 272.480469 340.429688 269.957031 341.777344 C 267.429688 343.128906 264.875 344.417969 262.289062 345.644531 C 259.699219 346.867188 257.085938 348.03125 254.441406 349.128906 C 251.796875 350.222656 249.125 351.257812 246.429688 352.222656 C 243.734375 353.1875 241.015625 354.089844 238.277344 354.921875 C 235.539062 355.753906 232.78125 356.519531 230.003906 357.21875 C 227.226562 357.914062 224.433594 358.542969 221.628906 359.105469 C 218.820312 359.667969 216 360.15625 213.167969 360.582031 C 210.335938 361.003906 207.496094 361.355469 204.648438 361.640625 C 201.796875 361.921875 198.945312 362.136719 196.085938 362.28125 C 193.222656 362.421875 190.363281 362.496094 187.5 362.5 Z M 187.5 362.5 " fill-opacity="1" fill-rule="nonzero"/></svg>