<svg xmlns="http://www.w3.org/2000/svg" xmlns:xlink="http://www.w3.org/1999/xlink" width="500" zoomAndPan="magnify" viewBox="0 0 375 374.999991" height="500" preserveAspectRatio="xMidYMid meet" version="1.0"><defs><g/><clipPath id="902a5a1a5a"><path d="M 187.5 0 C 83.945312 0 0 83.945312 0 187.5 C 0 291.054688 83.945312 375 187.5 375 C 291.054688 375 375 291.054688 375 187.5 C 375 83.945312 291.054688 0 187.5 0 Z M 187.5 0 " clip-rule="nonzero"/></clipPath><clipPath id="7c66b2cd96"><path d="M 0 0 L 375 0 L 375 375 L 0 375 Z M 0 0 " clip-rule="nonzero"/></clipPath><clipPath id="0924afa461"><path d="M 187.5 0 C 83.945312 0 0 83.945312 0 187.5 C 0 291.054688 83.945312 375 187.5 375 C 291.054688 375 375 291.054688 375 187.5 C 375 83.945312 291.054688 0 187.5 0 Z M 187.5 0 " clip-rule="nonzero"/></clipPath><clipPath id="50bf39cd18"><rect x="0" width="375" y="0" height="375"/></clipPath><clipPath id="55d09fa3a9"><path d="M 0.519531 0 L 316.359375 0 L 316.359375 182 L 0.519531 182 Z M 0.519531 0 " clip-rule="nonzero"/></clipPath><clipPath id="169961c523"><rect x="0" width="317" y="0" height="182"/></clipPath><clipPath id="42670c3639"><path d="M 4 159 L 291 159 L 291 204.71875 L 4 204.71875 Z M 4 159 " clip-rule="nonzero"/></clipPath><clipPath id="2368bfc5f1"><rect x="0" width="287" y="0" height="46"/></clipPath><clipPath id="fddc9e59be"><rect x="0" width="317" y="0" height="205"/></clipPath></defs><g clip-path="url(#902a5a1a5a)"><g transform="matrix(1, 0, 0, 1, 0, 0)"><g clip-path="url(#50bf39cd18)"><g clip-path="url(#7c66b2cd96)"><g clip-path="url(#0924afa461)"><rect x="-82.5" width="540" fill="#ffffff" height="539.999987" y="-82.499998" fill-opacity="1"/></g></g></g></g></g><g transform="matrix(1, 0, 0, 1, 35, 72)"><g clip-path="url(#fddc9e59be)"><g clip-path="url(#55d09fa3a9)"><g><g clip-path="url(#169961c523)"><g fill="#57a4ff" fill-opacity="1"><g transform="translate(1.813122, 142.337756)"><g><path d="M 77.71875 -3.03125 L 77.71875 -79.234375 C 77.71875 -81.609375 76.992188 -83.71875 75.546875 -85.5625 C 74.109375 -87.414062 72.125 -88.34375 69.59375 -88.34375 C 67.113281 -88.34375 65.164062 -87.457031 63.75 -85.6875 C 62.332031 -83.914062 61.578125 -81.867188 61.484375 -79.546875 L 61.484375 -2.890625 C 61.484375 -2.078125 61.34375 -1.390625 61.0625 -0.828125 C 60.78125 -0.273438 60.1875 0 59.28125 0 L 43.265625 0 C 42.753906 0 42.285156 -0.289062 41.859375 -0.875 C 41.429688 -1.457031 41.21875 -2.148438 41.21875 -2.953125 L 41.21875 -79.234375 C 41.21875 -81.609375 40.507812 -83.71875 39.09375 -85.5625 C 37.675781 -87.414062 35.703125 -88.34375 33.171875 -88.34375 C 30.585938 -88.34375 28.585938 -87.414062 27.171875 -85.5625 C 25.753906 -83.71875 25.046875 -81.609375 25.046875 -79.234375 L 25.046875 -2.953125 C 25.046875 -2.148438 24.894531 -1.457031 24.59375 -0.875 C 24.289062 -0.289062 23.679688 0 22.765625 0 L 6.75 0 C 6.25 0 5.796875 -0.289062 5.390625 -0.875 C 4.984375 -1.457031 4.78125 -2.148438 4.78125 -2.953125 L 4.78125 -80.375 C 4.78125 -84.019531 5.535156 -87.4375 7.046875 -90.625 C 8.566406 -93.8125 10.628906 -96.601562 13.234375 -99 C 15.847656 -101.40625 18.863281 -103.289062 22.28125 -104.65625 C 25.695312 -106.03125 29.300781 -106.71875 33.09375 -106.71875 C 36.476562 -106.71875 39.738281 -106.160156 42.875 -105.046875 C 46.019531 -103.929688 48.832031 -102.382812 51.3125 -100.40625 C 53.789062 -102.382812 56.597656 -103.929688 59.734375 -105.046875 C 62.867188 -106.160156 66.128906 -106.71875 69.515625 -106.71875 C 73.316406 -106.71875 76.921875 -106.03125 80.328125 -104.65625 C 83.742188 -103.289062 86.769531 -101.40625 89.40625 -99 C 92.039062 -96.601562 94.113281 -93.8125 95.625 -90.625 C 97.144531 -87.4375 97.90625 -84.019531 97.90625 -80.375 L 97.90625 -3.03125 C 97.90625 -2.269531 97.726562 -1.570312 97.375 -0.9375 C 97.019531 -0.3125 96.410156 0 95.546875 0 L 80.140625 0 C 79.335938 0 78.734375 -0.300781 78.328125 -0.90625 C 77.921875 -1.519531 77.71875 -2.226562 77.71875 -3.03125 Z M 77.71875 -3.03125 "/></g></g></g><g fill="#57a4ff" fill-opacity="1"><g transform="translate(116.150913, 142.337756)"><g><path d="M 25.046875 -79.234375 L 25.046875 -42.734375 L 41.21875 -42.734375 L 41.21875 -79.234375 C 41.21875 -81.609375 40.507812 -83.71875 39.09375 -85.5625 C 37.675781 -87.414062 35.703125 -88.34375 33.171875 -88.34375 C 30.585938 -88.34375 28.585938 -87.414062 27.171875 -85.5625 C 25.753906 -83.71875 25.046875 -81.609375 25.046875 -79.234375 Z M 61.484375 -80.375 L 61.484375 -3.03125 C 61.484375 -2.269531 61.289062 -1.570312 60.90625 -0.9375 C 60.53125 -0.3125 59.910156 0 59.046875 0 L 43.640625 0 C 42.878906 0 42.285156 -0.300781 41.859375 -0.90625 C 41.429688 -1.519531 41.21875 -2.226562 41.21875 -3.03125 L 41.21875 -25.046875 L 25.046875 -25.046875 L 25.046875 -2.953125 C 25.046875 -2.148438 24.894531 -1.457031 24.59375 -0.875 C 24.289062 -0.289062 23.679688 0 22.765625 0 L 6.75 0 C 6.195312 0 5.726562 -0.289062 5.34375 -0.875 C 4.96875 -1.457031 4.78125 -2.148438 4.78125 -2.953125 L 4.78125 -80.375 C 4.78125 -84.019531 5.535156 -87.4375 7.046875 -90.625 C 8.566406 -93.8125 10.628906 -96.601562 13.234375 -99 C 15.847656 -101.40625 18.863281 -103.289062 22.28125 -104.65625 C 25.695312 -106.03125 29.300781 -106.71875 33.09375 -106.71875 C 36.882812 -106.71875 40.488281 -106.03125 43.90625 -104.65625 C 47.320312 -103.289062 50.34375 -101.40625 52.96875 -99 C 55.601562 -96.601562 57.679688 -93.8125 59.203125 -90.625 C 60.722656 -87.4375 61.484375 -84.019531 61.484375 -80.375 Z M 61.484375 -80.375 "/></g></g></g><g fill="#57a4ff" fill-opacity="1"><g transform="translate(194.061562, 142.337756)"><g><path d="M 25.65625 -102.078125 L 25.65625 -2.890625 C 25.65625 -0.960938 24.820312 0 23.15625 0 L 7.96875 0 C 6.300781 0 5.46875 -0.960938 5.46875 -2.890625 L 5.46875 -102.078125 C 5.46875 -104.054688 6.300781 -105.046875 7.96875 -105.046875 L 23.15625 -105.046875 C 24.820312 -105.046875 25.65625 -104.054688 25.65625 -102.078125 Z M 25.65625 -102.078125 "/></g></g></g><g fill="#57a4ff" fill-opacity="1"><g transform="translate(236.911087, 142.337756)"><g><path d="M 59.046875 0 L 43.640625 0 C 42.878906 0 42.285156 -0.300781 41.859375 -0.90625 C 41.429688 -1.519531 41.21875 -2.226562 41.21875 -3.03125 L 41.21875 -79.234375 C 41.21875 -81.609375 40.507812 -83.71875 39.09375 -85.5625 C 37.675781 -87.414062 35.703125 -88.34375 33.171875 -88.34375 C 30.585938 -88.34375 28.585938 -87.414062 27.171875 -85.5625 C 25.753906 -83.71875 25.046875 -81.609375 25.046875 -79.234375 L 25.046875 -2.953125 C 25.046875 -2.148438 24.878906 -1.457031 24.546875 -0.875 C 24.222656 -0.289062 23.628906 0 22.765625 0 L 6.75 0 C 6.195312 0 5.726562 -0.289062 5.34375 -0.875 C 4.96875 -1.457031 4.78125 -2.148438 4.78125 -2.953125 L 4.78125 -80.375 C 4.78125 -84.019531 5.535156 -87.4375 7.046875 -90.625 C 8.566406 -93.8125 10.628906 -96.601562 13.234375 -99 C 15.847656 -101.40625 18.863281 -103.289062 22.28125 -104.65625 C 25.695312 -106.03125 29.300781 -106.71875 33.09375 -106.71875 C 36.882812 -106.71875 40.488281 -106.03125 43.90625 -104.65625 C 47.320312 -103.289062 50.34375 -101.40625 52.96875 -99 C 55.601562 -96.601562 57.679688 -93.8125 59.203125 -90.625 C 60.722656 -87.4375 61.484375 -84.019531 61.484375 -80.375 L 61.484375 -3.03125 C 61.484375 -2.269531 61.289062 -1.570312 60.90625 -0.9375 C 60.53125 -0.3125 59.910156 0 59.046875 0 Z M 59.046875 0 "/></g></g></g></g></g></g><g clip-path="url(#42670c3639)"><g transform="matrix(1, 0, 0, 1, 4, 159)"><g clip-path="url(#2368bfc5f1)"><g fill="#57a4ff" fill-opacity="1"><g transform="translate(0.292788, 35.934835)"><g><path d="M 8.890625 -34.671875 L 8.890625 -4.53125 L 30.09375 -4.53125 L 30.09375 0 L 3.96875 0 L 3.96875 -34.671875 Z M 8.890625 -34.671875 "/></g></g></g><g fill="#57a4ff" fill-opacity="1"><g transform="translate(34.632482, 35.934835)"><g><path d="M 0 0 L 16.484375 -34.671875 L 21.59375 -34.671875 L 37.015625 0 L 31.90625 0 L 27.515625 -9.890625 L 9.796875 -9.890625 L 5.203125 0 Z M 11.84375 -14.421875 L 25.5 -14.421875 L 18.875 -29.1875 Z M 11.84375 -14.421875 "/></g></g></g><g fill="#57a4ff" fill-opacity="1"><g transform="translate(75.228502, 35.934835)"><g><path d="M 3.96875 -34.671875 L 8.890625 -34.671875 L 8.890625 -15 C 8.890625 -11.207031 9.71875 -8.363281 11.375 -6.46875 C 13.03125 -4.570312 15.65625 -3.625 19.25 -3.625 C 22.875 -3.625 25.519531 -4.570312 27.1875 -6.46875 C 28.863281 -8.363281 29.703125 -11.207031 29.703125 -15 L 29.703125 -34.671875 L 34.625 -34.671875 L 34.625 -12.9375 C 34.625 -8.414062 33.328125 -4.976562 30.734375 -2.625 C 28.140625 -0.269531 24.328125 0.90625 19.296875 0.90625 C 14.296875 0.90625 10.488281 -0.269531 7.875 -2.625 C 5.269531 -4.976562 3.96875 -8.414062 3.96875 -12.9375 Z M 3.96875 -34.671875 "/></g></g></g><g fill="#57a4ff" fill-opacity="1"><g transform="translate(117.400534, 35.934835)"><g><path d="M 3.96875 -34.671875 L 10.5625 -34.671875 L 32.390625 -5.109375 L 32.390625 -34.671875 L 37.15625 -34.671875 L 37.15625 0 L 30.515625 0 L 8.734375 -29.5625 L 8.734375 0 L 3.96875 0 Z M 3.96875 -34.671875 "/></g></g></g><g fill="#57a4ff" fill-opacity="1"><g transform="translate(162.103742, 35.934835)"><g><path d="M 8.890625 -30.140625 L 8.890625 -4.53125 L 20.78125 -4.53125 C 25.113281 -4.53125 28.375 -5.492188 30.5625 -7.421875 C 32.757812 -9.347656 33.859375 -12.671875 33.859375 -17.390625 C 33.859375 -21.941406 32.757812 -25.203125 30.5625 -27.171875 C 28.375 -29.148438 25.113281 -30.140625 20.78125 -30.140625 Z M 3.96875 0 L 3.96875 -34.671875 L 21.15625 -34.671875 C 24.664062 -34.671875 27.753906 -34.101562 30.421875 -32.96875 C 33.097656 -31.84375 35.191406 -30.003906 36.703125 -27.453125 C 38.222656 -24.910156 38.984375 -21.539062 38.984375 -17.34375 C 38.984375 -14 38.503906 -11.210938 37.546875 -8.984375 C 36.585938 -6.753906 35.234375 -4.976562 33.484375 -3.65625 C 31.734375 -2.332031 29.65625 -1.390625 27.25 -0.828125 C 24.84375 -0.273438 22.175781 0 19.25 0 Z M 3.96875 0 "/></g></g></g><g fill="#57a4ff" fill-opacity="1"><g transform="translate(206.711445, 35.934835)"><g><path d="M 3.96875 0 L 3.96875 -34.671875 L 22.21875 -34.671875 C 26.257812 -34.671875 29.320312 -33.859375 31.40625 -32.234375 C 33.488281 -30.617188 34.53125 -28.28125 34.53125 -25.21875 C 34.53125 -20.820312 32.539062 -17.988281 28.5625 -16.71875 C 29.832031 -16.5 30.84375 -16.125 31.59375 -15.59375 C 32.34375 -15.070312 32.898438 -14.257812 33.265625 -13.15625 C 33.628906 -12.0625 33.878906 -10.476562 34.015625 -8.40625 C 34.171875 -6.113281 34.34375 -4.265625 34.53125 -2.859375 C 34.726562 -1.460938 35.078125 -0.507812 35.578125 0 L 29.859375 0 C 29.628906 -0.507812 29.457031 -1.265625 29.34375 -2.265625 C 29.238281 -3.273438 29.125 -4.703125 29 -6.546875 C 28.863281 -8.804688 28.585938 -10.539062 28.171875 -11.75 C 27.765625 -12.957031 27.070312 -13.785156 26.09375 -14.234375 C 25.125 -14.679688 23.703125 -14.90625 21.828125 -14.90625 L 8.890625 -14.90625 L 8.890625 0 Z M 8.890625 -30.625 L 8.890625 -18.96875 L 20.25 -18.96875 C 23.4375 -18.96875 25.789062 -19.390625 27.3125 -20.234375 C 28.84375 -21.078125 29.609375 -22.613281 29.609375 -24.84375 C 29.609375 -27.195312 28.8125 -28.75 27.21875 -29.5 C 25.632812 -30.25 23.171875 -30.625 19.828125 -30.625 Z M 8.890625 -30.625 "/></g></g></g><g fill="#57a4ff" fill-opacity="1"><g transform="translate(248.167104, 35.934835)"><g><path d="M -0.71875 -34.671875 L 5.25 -34.671875 L 17.203125 -18.53125 L 29.28125 -34.671875 L 35.15625 -34.671875 L 19.734375 -14.46875 L 19.734375 0 L 14.8125 0 L 14.8125 -14.46875 Z M -0.71875 -34.671875 "/></g></g></g></g></g></g></g></g></svg>